<?xml version="1.0" encoding="utf-8"?>
<!-- Generator: Adobe Illustrator 17.0.0, SVG Export Plug-In . SVG Version: 6.00 Build 0)  -->
<!DOCTYPE svg PUBLIC "-//W3C//DTD SVG 1.1//EN" "http://www.w3.org/Graphics/SVG/1.1/DTD/svg11.dtd">
<svg version="1.1" id="Layer_1" xmlns="http://www.w3.org/2000/svg" xmlns:xlink="http://www.w3.org/1999/xlink" x="0px" y="0px"
	 width="107.65px" height="107.65px" viewBox="0 0 107.65 107.65" enable-background="new 0 0 107.65 107.65" xml:space="preserve">
<g>
	<path fill="#E6205B" stroke="#E6205B" stroke-miterlimit="10" d="M37.597,43.06c1.985,0.1,3.962,0.021,5.933-0.236
		c0.88-0.115,1.127,0.125,0.932,0.97c-0.146,0.633-0.01,1.235,0.022,1.85c0.021,0.402,0.014,0.838-0.491,0.897
		c-0.564,0.066-0.466-0.416-0.473-0.747c-0.014-0.709-0.508-1.005-1.064-1.131c-1.894-0.428-3.814-0.432-5.736-0.209
		c-0.524,0.061-0.756,0.411-0.755,0.928c0.005,1.361,0.014,2.722,0.009,4.083c-0.002,0.525,0.235,0.741,0.759,0.733
		c1.154-0.017,2.308-0.005,3.462-0.005c0.92-0.001,1.52-0.406,1.698-1.346c0.06-0.317,0.081-0.712,0.534-0.673
		c0.484,0.041,0.51,0.445,0.462,0.806c-0.158,1.181-0.121,2.359-0.006,3.54c0.028,0.289,0.058,0.642-0.321,0.734
		c-0.439,0.106-0.555-0.251-0.638-0.57c-0.25-0.957-0.921-1.328-1.843-1.34c-1.095-0.014-2.19,0.011-3.284-0.015
		c-0.612-0.015-0.849,0.248-0.843,0.844c0.014,1.479-0.012,2.959,0.009,4.438c0.013,0.902,0.495,1.573,1.349,1.549
		c1.644-0.046,3.309,0.105,4.932-0.353c1.086-0.307,1.718-0.968,1.897-2.082c0.064-0.397,0.096-0.935,0.693-0.792
		c0.529,0.127,0.616,0.63,0.485,1.087c-0.277,0.969-0.534,1.932-0.493,2.955c0.014,0.35-0.207,0.534-0.579,0.495
		c-3.896-0.403-7.802-0.052-11.702-0.155c-0.406-0.011-1.046,0.188-1.068-0.45c-0.018-0.523,0.58-0.404,0.954-0.468
		c0.966-0.167,1.44-0.763,1.445-1.918c0.014-2.9,0.004-5.799,0.002-8.699c0-0.651,0.009-1.302-0.019-1.952
		c-0.039-0.924-0.444-1.589-1.41-1.775c-0.367-0.07-0.616-0.187-0.572-0.62c0.054-0.53,0.458-0.366,0.748-0.368
		C34.284,43.054,35.94,43.06,37.597,43.06z"/>
	<path fill="#E6205B" stroke="#E6205B" stroke-miterlimit="10" d="M70.164,56.213c0.848-1.741,1.914-3.289,2.426-5.101
		c0.231-0.816,0.094-1.402-0.828-1.613c-0.315-0.072-0.562-0.241-0.473-0.618c0.085-0.358,0.399-0.292,0.654-0.292
		c1.213,0.001,2.425,0.009,3.638,0.021c0.228,0.002,0.504-0.042,0.573,0.277c0.07,0.325-0.113,0.493-0.406,0.577
		c-1.147,0.328-1.66,1.271-2.129,2.237c-1.588,3.272-3.154,6.555-4.747,9.825c-0.551,1.131-1.297,2.118-2.371,2.818
		c-0.451,0.294-0.931,0.517-1.489,0.505c-0.697-0.015-1.132-0.352-1.174-1.058c-0.035-0.597,0.588-1.146,1.239-0.898
		c1.578,0.602,2.133-0.485,2.734-1.493c0.791-1.327,1.075-2.705,0.427-4.226c-0.892-2.093-1.689-4.227-2.522-6.346
		c-0.253-0.644-0.669-1.107-1.359-1.285c-0.303-0.078-0.574-0.19-0.537-0.581c0.043-0.454,0.396-0.359,0.673-0.36
		c1.302-0.007,2.603-0.005,3.905,0c0.257,0.001,0.564-0.056,0.62,0.325c0.057,0.391-0.196,0.53-0.518,0.575
		c-0.774,0.108-0.855,0.603-0.711,1.235C68.235,52.706,69.424,54.354,70.164,56.213z"/>
	<path fill="#E6205B" stroke="#E6205B" stroke-miterlimit="10" d="M58.727,59.605c-0.449,0.085-0.872,0.029-1.334-0.175
		c-0.496-0.219-1.077-0.296-1.56,0.181c-0.156,0.155-0.361,0.237-0.625,0.059c-0.267-0.181-0.265-0.44-0.186-0.616
		c0.387-0.861,0.201-1.74,0.166-2.62c-0.018-0.462,0.074-0.967,0.647-0.988c0.551-0.021,0.464,0.507,0.526,0.864
		c0.319,1.838,2.401,2.814,4.046,1.892c1.049-0.588,1.155-1.887,0.206-2.642c-0.586-0.466-1.29-0.713-1.959-1.024
		c-0.589-0.274-1.188-0.536-1.743-0.87c-1.054-0.636-1.617-1.581-1.416-2.828c0.202-1.251,1.024-1.994,2.216-2.346
		c0.902-0.267,1.818-0.277,2.714-0.019c0.475,0.137,0.856,0.177,1.327-0.088c0.556-0.313,0.986,0.025,0.821,0.64
		c-0.175,0.649-0.084,1.288-0.124,1.93c-0.021,0.331,0.007,0.695-0.421,0.768c-0.444,0.075-0.55-0.291-0.614-0.606
		c-0.302-1.488-1.981-1.96-3.087-1.549c-0.509,0.189-0.861,0.526-0.981,1.056c-0.128,0.565,0.17,0.971,0.586,1.296
		c0.591,0.462,1.298,0.7,1.98,0.98c0.713,0.293,1.421,0.596,2.025,1.088c1.792,1.461,1.528,4.007-0.527,5.072
		C60.578,59.49,59.685,59.659,58.727,59.605z"/>
	<path fill="#E6205B" stroke="#E6205B" stroke-miterlimit="10" d="M49.809,53.334c0,0.975-0.062,1.954,0.015,2.923
		c0.116,1.467,1.095,2.01,2.422,1.417c0.331-0.148,0.691-0.518,0.991-0.021c0.251,0.417-0.088,0.712-0.36,0.982
		c-0.9,0.892-2.502,1.279-3.524,0.791c-1.194-0.569-1.548-1.624-1.527-2.865c0.027-1.596,0.038-3.192,0.074-4.787
		c0.019-0.831-0.151-1.459-1.16-1.519c-0.268-0.016-0.573-0.188-0.6-0.556c-0.02-0.271,0.122-0.467,0.357-0.557
		c1.316-0.509,1.851-1.669,2.39-2.829c0.157-0.337,0.229-0.824,0.762-0.658c0.532,0.166,0.31,0.615,0.25,0.973
		c-0.322,1.914-0.309,1.934,1.593,1.984c0.412,0.011,0.825-0.002,1.237,0.003c0.461,0.006,0.61,0.29,0.602,0.7
		c-0.007,0.394-0.206,0.595-0.607,0.595c-0.768,0-1.538,0.03-2.305,0.001c-0.51-0.019-0.68,0.189-0.67,0.675
		c0.02,0.916,0.006,1.832,0.006,2.749C49.772,53.334,49.79,53.334,49.809,53.334z"/>
</g>
<g>
	<path fill="#E6205B" d="M53.824,107.646C24.145,107.646,0,83.502,0,53.823S24.145,0,53.824,0s53.824,24.145,53.824,53.823
		S83.502,107.646,53.824,107.646z M53.824,2C25.248,2,2,25.248,2,53.823s23.248,51.823,51.824,51.823s51.824-23.248,51.824-51.823
		S82.399,2,53.824,2z"/>
</g>
</svg>
