<?xml version="1.0" encoding="utf-8"?>
<!-- Generator: Adobe Illustrator 17.0.0, SVG Export Plug-In . SVG Version: 6.00 Build 0)  -->
<!DOCTYPE svg PUBLIC "-//W3C//DTD SVG 1.1//EN" "http://www.w3.org/Graphics/SVG/1.1/DTD/svg11.dtd">
<svg version="1.1" xmlns="http://www.w3.org/2000/svg" xmlns:xlink="http://www.w3.org/1999/xlink" x="0px" y="0px"
	 width="107.65px" height="107.65px" viewBox="0 0 107.65 107.65" enable-background="new 0 0 107.65 107.65" xml:space="preserve">
<g id="Etsy" display="none">
	<g display="inline">
		<path fill="#E6205B" stroke="#E6205B" stroke-miterlimit="10" d="M37.597,43.06c1.985,0.1,3.962,0.021,5.933-0.236
			c0.88-0.115,1.127,0.125,0.932,0.97c-0.146,0.633-0.01,1.235,0.022,1.85c0.021,0.402,0.014,0.838-0.491,0.897
			c-0.564,0.066-0.466-0.416-0.473-0.747c-0.014-0.709-0.508-1.005-1.064-1.131c-1.894-0.428-3.814-0.432-5.736-0.209
			c-0.524,0.061-0.756,0.411-0.755,0.928c0.005,1.361,0.014,2.722,0.009,4.083c-0.002,0.525,0.235,0.741,0.759,0.733
			c1.154-0.017,2.308-0.005,3.462-0.005c0.92-0.001,1.52-0.406,1.698-1.346c0.06-0.317,0.081-0.712,0.534-0.673
			c0.484,0.041,0.51,0.445,0.462,0.806c-0.158,1.181-0.121,2.359-0.006,3.54c0.028,0.289,0.058,0.642-0.321,0.734
			c-0.439,0.106-0.555-0.251-0.638-0.57c-0.25-0.957-0.921-1.328-1.843-1.34c-1.095-0.014-2.19,0.011-3.284-0.015
			c-0.612-0.015-0.849,0.248-0.843,0.844c0.014,1.479-0.012,2.959,0.009,4.438c0.013,0.902,0.495,1.573,1.349,1.549
			c1.644-0.046,3.309,0.105,4.932-0.353c1.086-0.307,1.718-0.968,1.897-2.082c0.064-0.397,0.096-0.935,0.693-0.792
			c0.529,0.127,0.616,0.63,0.485,1.087c-0.277,0.969-0.534,1.932-0.493,2.955c0.014,0.35-0.207,0.534-0.579,0.495
			c-3.896-0.403-7.802-0.052-11.702-0.155c-0.406-0.011-1.046,0.188-1.068-0.45c-0.018-0.523,0.58-0.404,0.954-0.468
			c0.966-0.167,1.44-0.763,1.445-1.918c0.014-2.9,0.004-5.799,0.002-8.699c0-0.651,0.009-1.302-0.019-1.952
			c-0.039-0.924-0.444-1.589-1.41-1.775c-0.367-0.07-0.616-0.187-0.572-0.62c0.054-0.53,0.458-0.366,0.748-0.368
			C34.284,43.054,35.94,43.06,37.597,43.06z"/>
		<path fill="#E6205B" stroke="#E6205B" stroke-miterlimit="10" d="M70.164,56.213c0.848-1.741,1.914-3.289,2.426-5.101
			c0.231-0.816,0.094-1.402-0.828-1.613c-0.315-0.072-0.562-0.241-0.473-0.618c0.085-0.358,0.399-0.292,0.654-0.292
			c1.213,0.001,2.425,0.009,3.638,0.021c0.228,0.002,0.504-0.042,0.573,0.277c0.07,0.325-0.113,0.493-0.406,0.577
			c-1.147,0.328-1.66,1.271-2.129,2.237c-1.588,3.272-3.154,6.555-4.747,9.825c-0.551,1.131-1.297,2.118-2.371,2.818
			c-0.451,0.294-0.931,0.517-1.489,0.505c-0.697-0.015-1.132-0.352-1.174-1.058c-0.035-0.597,0.588-1.146,1.239-0.898
			c1.578,0.602,2.133-0.485,2.734-1.493c0.791-1.327,1.075-2.705,0.427-4.226c-0.892-2.093-1.689-4.227-2.522-6.346
			c-0.253-0.644-0.669-1.107-1.359-1.285c-0.303-0.078-0.574-0.19-0.537-0.581c0.043-0.454,0.396-0.359,0.673-0.36
			c1.302-0.007,2.603-0.005,3.905,0c0.257,0.001,0.564-0.056,0.62,0.325c0.057,0.391-0.196,0.53-0.518,0.575
			c-0.774,0.108-0.855,0.603-0.711,1.235C68.235,52.706,69.424,54.354,70.164,56.213z"/>
		<path fill="#E6205B" stroke="#E6205B" stroke-miterlimit="10" d="M58.727,59.605c-0.449,0.085-0.872,0.029-1.334-0.175
			c-0.496-0.219-1.077-0.296-1.56,0.181c-0.156,0.155-0.361,0.237-0.625,0.059c-0.267-0.181-0.265-0.44-0.186-0.616
			c0.387-0.861,0.201-1.74,0.166-2.62c-0.018-0.462,0.074-0.967,0.647-0.988c0.551-0.021,0.464,0.507,0.526,0.864
			c0.319,1.838,2.401,2.814,4.046,1.892c1.049-0.588,1.155-1.887,0.206-2.642c-0.586-0.466-1.29-0.713-1.959-1.024
			c-0.589-0.274-1.188-0.536-1.743-0.87c-1.054-0.636-1.617-1.581-1.416-2.828c0.202-1.251,1.024-1.994,2.216-2.346
			c0.902-0.267,1.818-0.277,2.714-0.019c0.475,0.137,0.856,0.177,1.327-0.088c0.556-0.313,0.986,0.025,0.821,0.64
			c-0.175,0.649-0.084,1.288-0.124,1.93c-0.021,0.331,0.007,0.695-0.421,0.768c-0.444,0.075-0.55-0.291-0.614-0.606
			c-0.302-1.488-1.981-1.96-3.087-1.549c-0.509,0.189-0.861,0.526-0.981,1.056c-0.128,0.565,0.17,0.971,0.586,1.296
			c0.591,0.462,1.298,0.7,1.98,0.98c0.713,0.293,1.421,0.596,2.025,1.088c1.792,1.461,1.528,4.007-0.527,5.072
			C60.578,59.49,59.685,59.659,58.727,59.605z"/>
		<path fill="#E6205B" stroke="#E6205B" stroke-miterlimit="10" d="M49.809,53.334c0,0.975-0.062,1.954,0.015,2.923
			c0.116,1.467,1.095,2.01,2.422,1.417c0.331-0.148,0.691-0.518,0.991-0.021c0.251,0.417-0.088,0.712-0.36,0.982
			c-0.9,0.892-2.502,1.279-3.524,0.791c-1.194-0.569-1.548-1.624-1.527-2.865c0.027-1.596,0.038-3.192,0.074-4.787
			c0.019-0.831-0.151-1.459-1.16-1.519c-0.268-0.016-0.573-0.188-0.6-0.556c-0.02-0.271,0.122-0.467,0.357-0.557
			c1.316-0.509,1.851-1.669,2.39-2.829c0.157-0.337,0.229-0.824,0.762-0.658c0.532,0.166,0.31,0.615,0.25,0.973
			c-0.322,1.914-0.309,1.934,1.593,1.984c0.412,0.011,0.825-0.002,1.237,0.003c0.461,0.006,0.61,0.29,0.602,0.7
			c-0.007,0.394-0.206,0.595-0.607,0.595c-0.768,0-1.538,0.03-2.305,0.001c-0.51-0.019-0.68,0.189-0.67,0.675
			c0.02,0.916,0.006,1.832,0.006,2.749C49.772,53.334,49.79,53.334,49.809,53.334z"/>
	</g>
	<g display="inline">
		<path fill="#E6205B" d="M53.824,107.646C24.145,107.646,0,83.502,0,53.823S24.145,0,53.824,0s53.824,24.145,53.824,53.823
			S83.502,107.646,53.824,107.646z M53.824,2C25.248,2,2,25.248,2,53.823s23.248,51.823,51.824,51.823s51.824-23.248,51.824-51.823
			S82.399,2,53.824,2z"/>
	</g>
</g>
<g id="Layer_2">
	<g>
		<path fill="#E6205B" d="M51.615,61.249c0-4.859,0-9.641,0-14.482c1.051-0.171,2.086-0.339,3.182-0.517c0,1.694,0,3.309,0,4.964
			c0.389,0.053,0.701-0.112,1.023-0.162c0.898-0.14,1.796-0.171,2.691-0.023c1.477,0.244,2.207,0.952,2.38,2.434
			c0.197,1.693,0.21,3.401-0.006,5.091c-0.206,1.609-1.136,2.534-2.722,2.87C55.985,61.884,53.828,61.586,51.615,61.249z
			 M54.82,59.03c0.598,0,1.118,0.029,1.632-0.007c0.776-0.055,1.269-0.507,1.294-1.233c0.036-1.056,0.023-2.115,0.005-3.172
			c-0.009-0.522-0.308-0.876-0.816-0.966c-0.745-0.132-1.465-0.036-2.116,0.41C54.82,55.706,54.82,57.334,54.82,59.03z"/>
		<path fill="#E6205B" d="M88.91,61.503c-0.931-1.538-1.869-3.087-2.808-4.636c-0.045,0.01-0.091,0.021-0.136,0.031
			c0,1.517,0,3.034,0,4.597c-1.107,0-2.133,0-3.198,0c0-4.9,0-9.779,0-14.729c1.025-0.169,2.057-0.34,3.156-0.521
			c0,3.135,0,6.188,0,9.241c0.047,0.019,0.095,0.039,0.142,0.058c0.949-1.485,1.897-2.97,2.843-4.45c1.145,0,2.255,0,3.468,0
			c-1.093,1.725-2.137,3.373-3.207,5.063c1.053,1.757,2.106,3.514,3.205,5.347C91.178,61.503,90.088,61.503,88.91,61.503z"/>
		<path fill="#E6205B" d="M71.345,56.229c0,0.56,0.021,1.121-0.004,1.68c-0.083,1.877-1.145,3.142-2.98,3.544
			c-1.21,0.265-2.426,0.256-3.625-0.064c-1.502-0.401-2.418-1.384-2.656-2.918c-0.225-1.449-0.219-2.917,0-4.364
			c0.231-1.531,1.144-2.519,2.654-2.918c1.303-0.345,2.615-0.347,3.913,0.004c1.595,0.431,2.578,1.649,2.677,3.297
			c0.035,0.578,0.006,1.159,0.006,1.739C71.335,56.229,71.34,56.229,71.345,56.229z M65.182,56.292c0.004,0,0.007,0,0.011,0
			c0,0.519-0.031,1.04,0.007,1.556c0.054,0.731,0.579,1.148,1.404,1.176c0.839,0.028,1.502-0.395,1.538-1.098
			c0.054-1.055,0.058-2.118-0.003-3.172c-0.048-0.832-0.597-1.183-1.578-1.15c-0.871,0.03-1.336,0.44-1.375,1.251
			C65.163,55.333,65.182,55.813,65.182,56.292z"/>
		<path fill="#E6205B" d="M72.388,56.141c-0.041-0.72-0.094-1.449,0.06-2.154c0.339-1.559,1.324-2.522,2.874-2.863
			c1.206-0.265,2.427-0.268,3.629,0.047c1.582,0.415,2.505,1.46,2.718,3.07c0.168,1.272,0.134,2.56,0.031,3.837
			c-0.154,1.902-1.309,3.101-3.194,3.424c-1.093,0.188-2.194,0.187-3.279-0.077c-1.662-0.405-2.679-1.577-2.83-3.304
			C72.34,57.466,72.388,56.801,72.388,56.141z M75.546,56.351c-0.001,0-0.002,0-0.003,0c0,0.44-0.009,0.881,0.002,1.321
			c0.021,0.872,0.529,1.335,1.466,1.35c0.934,0.015,1.498-0.456,1.52-1.314c0.023-0.92,0.022-1.842,0.006-2.763
			c-0.016-0.888-0.521-1.334-1.472-1.342c-0.966-0.008-1.478,0.424-1.515,1.307C75.529,55.389,75.546,55.871,75.546,56.351z"/>
		<path fill="#E6205B" d="M50.425,57.222c-1.984,0-3.915,0-5.834,0c-0.189,1.18,0.188,1.7,1.302,1.783
			c1.303,0.098,2.596-0.041,3.881-0.26c0.113-0.019,0.229-0.025,0.377-0.041c0,0.844,0,1.659,0,2.559
			c-2.204,0.374-4.416,0.797-6.597-0.082c-1.373-0.553-2.02-1.711-2.17-3.141c-0.117-1.116-0.091-2.24-0.029-3.359
			c0.118-2.142,1.145-3.299,3.272-3.643c1.091-0.176,2.193-0.168,3.27,0.159c1.322,0.401,2.156,1.257,2.427,2.625
			C50.543,54.931,50.395,56.047,50.425,57.222z M47.234,55.073c0.071-0.666,0.053-1.256-0.547-1.577
			c-0.555-0.297-1.17-0.316-1.698,0.072c-0.51,0.375-0.523,0.926-0.41,1.506C45.476,55.073,46.327,55.073,47.234,55.073z"/>
		<path fill="#E6205B" d="M27.925,55.668c0-0.273-0.001-0.41,0-0.547c0.009-1.045-0.292-1.361-1.351-1.373
			c-1.04-0.012-2.079-0.003-3.22-0.003c0.086-0.875,0.168-1.716,0.249-2.538c0.051-0.045,0.08-0.095,0.109-0.095
			c1.579-0.001,3.161-0.13,4.735,0.1c1.62,0.237,2.422,1.019,2.614,2.649c0.234,1.994,0.061,4,0.104,6
			c0.012,0.536,0.002,1.072,0.002,1.647c-0.908,0-1.761,0-2.622,0c-0.195-0.119-0.083-0.372-0.23-0.558
			c-0.547,0.133-1.049,0.436-1.618,0.547c-0.554,0.108-1.106,0.171-1.668,0.139c-1.129-0.065-2.036-0.534-2.469-1.609
			c-0.461-1.144-0.501-2.324,0.245-3.383c0.528-0.75,1.374-0.935,2.231-0.967C25.972,55.64,26.911,55.668,27.925,55.668z
			 M27.906,57.744c-0.587,0-1.106-0.028-1.62,0.008c-0.485,0.034-0.841,0.24-0.795,0.828c0.042,0.537,0.334,0.787,0.849,0.815
			c0.58,0.031,1.078-0.205,1.566-0.452C27.906,58.545,27.906,58.188,27.906,57.744z"/>
		<path fill="#E6205B" d="M22.464,48.577c-0.547,0.025-1.062,0.047-1.577,0.071c-0.534,0.025-0.805,0.296-0.799,0.839
			c0.005,0.515,0.001,1.03,0.001,1.607c0.823,0,1.593,0,2.413,0c-0.094,0.896-0.18,1.724-0.272,2.603c-0.696,0-1.368,0-2.118,0
			c0,2.621,0,5.19,0,7.802c-1.104,0-2.132,0-3.223,0c0-2.562,0-5.115,0-7.683c-0.556-0.164-1.082-0.012-1.619-0.12
			c0-0.862,0-1.711,0-2.618c0.528,0,1.021,0,1.6,0c0-0.587-0.005-1.119,0.001-1.652c0.023-2.251,0.822-3.19,3.041-3.437
			c0.827-0.092,1.672-0.015,2.552-0.015C22.464,46.849,22.464,47.694,22.464,48.577z"/>
		<path fill="#E6205B" d="M40.292,51.361c0,0.859,0,1.655,0,2.493c-0.464,0.04-0.883-0.108-1.308-0.163
			c-0.797-0.103-1.596-0.161-2.395-0.067c-0.751,0.088-1.082,0.427-1.104,1.174c-0.029,1-0.029,2.003,0.002,3.003
			c0.021,0.708,0.293,0.998,0.997,1.143c1.146,0.237,2.269-0.039,3.396-0.187c0.117-0.015,0.235-0.032,0.397-0.054
			c0,0.852,0,1.682,0,2.553c-1.547,0.35-3.1,0.588-4.682,0.278c-1.961-0.385-3.083-1.591-3.291-3.603
			c-0.111-1.074-0.113-2.165-0.001-3.24c0.222-2.148,1.432-3.383,3.622-3.675C37.384,50.822,38.838,50.967,40.292,51.361z"/>
	</g>
	<g>
		<path fill="#E6205B" d="M53.824,107.646C24.145,107.646,0,83.502,0,53.823S24.145,0,53.824,0s53.824,24.145,53.824,53.823
			S83.502,107.646,53.824,107.646z M53.824,2C25.248,2,2,25.248,2,53.823s23.248,51.823,51.824,51.823s51.824-23.248,51.824-51.823
			S82.399,2,53.824,2z"/>
	</g>
</g>
</svg>
