<?xml version="1.0" encoding="utf-8"?>
<!-- Generator: Adobe Illustrator 17.0.0, SVG Export Plug-In . SVG Version: 6.00 Build 0)  -->
<!DOCTYPE svg PUBLIC "-//W3C//DTD SVG 1.1//EN" "http://www.w3.org/Graphics/SVG/1.1/DTD/svg11.dtd">
<svg version="1.1" xmlns="http://www.w3.org/2000/svg" xmlns:xlink="http://www.w3.org/1999/xlink" x="0px" y="0px"
	 width="107.65px" height="107.65px" viewBox="0 0 107.65 107.65" enable-background="new 0 0 107.65 107.65" xml:space="preserve">
<g id="Etsy" display="none">
	<g display="inline">
		<path fill="#E6205B" stroke="#E6205B" stroke-miterlimit="10" d="M37.597,43.06c1.985,0.1,3.962,0.021,5.933-0.236
			c0.88-0.115,1.127,0.125,0.932,0.97c-0.146,0.633-0.01,1.235,0.022,1.85c0.021,0.402,0.014,0.838-0.491,0.897
			c-0.564,0.066-0.466-0.416-0.473-0.747c-0.014-0.709-0.508-1.005-1.064-1.131c-1.894-0.428-3.814-0.432-5.736-0.209
			c-0.524,0.061-0.756,0.411-0.755,0.928c0.005,1.361,0.014,2.722,0.009,4.083c-0.002,0.525,0.235,0.741,0.759,0.733
			c1.154-0.017,2.308-0.005,3.462-0.005c0.92-0.001,1.52-0.406,1.698-1.346c0.06-0.317,0.081-0.712,0.534-0.673
			c0.484,0.041,0.51,0.445,0.462,0.806c-0.158,1.181-0.121,2.359-0.006,3.54c0.028,0.289,0.058,0.642-0.321,0.734
			c-0.439,0.106-0.555-0.251-0.638-0.57c-0.25-0.957-0.921-1.328-1.843-1.34c-1.095-0.014-2.19,0.011-3.284-0.015
			c-0.612-0.015-0.849,0.248-0.843,0.844c0.014,1.479-0.012,2.959,0.009,4.438c0.013,0.902,0.495,1.573,1.349,1.549
			c1.644-0.046,3.309,0.105,4.932-0.353c1.086-0.307,1.718-0.968,1.897-2.082c0.064-0.397,0.096-0.935,0.693-0.792
			c0.529,0.127,0.616,0.63,0.485,1.087c-0.277,0.969-0.534,1.932-0.493,2.955c0.014,0.35-0.207,0.534-0.579,0.495
			c-3.896-0.403-7.802-0.052-11.702-0.155c-0.406-0.011-1.046,0.188-1.068-0.45c-0.018-0.523,0.58-0.404,0.954-0.468
			c0.966-0.167,1.44-0.763,1.445-1.918c0.014-2.9,0.004-5.799,0.002-8.699c0-0.651,0.009-1.302-0.019-1.952
			c-0.039-0.924-0.444-1.589-1.41-1.775c-0.367-0.07-0.616-0.187-0.572-0.62c0.054-0.53,0.458-0.366,0.748-0.368
			C34.284,43.054,35.94,43.06,37.597,43.06z"/>
		<path fill="#E6205B" stroke="#E6205B" stroke-miterlimit="10" d="M70.164,56.213c0.848-1.741,1.914-3.289,2.426-5.101
			c0.231-0.816,0.094-1.402-0.828-1.613c-0.315-0.072-0.562-0.241-0.473-0.618c0.085-0.358,0.399-0.292,0.654-0.292
			c1.213,0.001,2.425,0.009,3.638,0.021c0.228,0.002,0.504-0.042,0.573,0.277c0.07,0.325-0.113,0.493-0.406,0.577
			c-1.147,0.328-1.66,1.271-2.129,2.237c-1.588,3.272-3.154,6.555-4.747,9.825c-0.551,1.131-1.297,2.118-2.371,2.818
			c-0.451,0.294-0.931,0.517-1.489,0.505c-0.697-0.015-1.132-0.352-1.174-1.058c-0.035-0.597,0.588-1.146,1.239-0.898
			c1.578,0.602,2.133-0.485,2.734-1.493c0.791-1.327,1.075-2.705,0.427-4.226c-0.892-2.093-1.689-4.227-2.522-6.346
			c-0.253-0.644-0.669-1.107-1.359-1.285c-0.303-0.078-0.574-0.19-0.537-0.581c0.043-0.454,0.396-0.359,0.673-0.36
			c1.302-0.007,2.603-0.005,3.905,0c0.257,0.001,0.564-0.056,0.62,0.325c0.057,0.391-0.196,0.53-0.518,0.575
			c-0.774,0.108-0.855,0.603-0.711,1.235C68.235,52.706,69.424,54.354,70.164,56.213z"/>
		<path fill="#E6205B" stroke="#E6205B" stroke-miterlimit="10" d="M58.727,59.605c-0.449,0.085-0.872,0.029-1.334-0.175
			c-0.496-0.219-1.077-0.296-1.56,0.181c-0.156,0.155-0.361,0.237-0.625,0.059c-0.267-0.181-0.265-0.44-0.186-0.616
			c0.387-0.861,0.201-1.74,0.166-2.62c-0.018-0.462,0.074-0.967,0.647-0.988c0.551-0.021,0.464,0.507,0.526,0.864
			c0.319,1.838,2.401,2.814,4.046,1.892c1.049-0.588,1.155-1.887,0.206-2.642c-0.586-0.466-1.29-0.713-1.959-1.024
			c-0.589-0.274-1.188-0.536-1.743-0.87c-1.054-0.636-1.617-1.581-1.416-2.828c0.202-1.251,1.024-1.994,2.216-2.346
			c0.902-0.267,1.818-0.277,2.714-0.019c0.475,0.137,0.856,0.177,1.327-0.088c0.556-0.313,0.986,0.025,0.821,0.64
			c-0.175,0.649-0.084,1.288-0.124,1.93c-0.021,0.331,0.007,0.695-0.421,0.768c-0.444,0.075-0.55-0.291-0.614-0.606
			c-0.302-1.488-1.981-1.96-3.087-1.549c-0.509,0.189-0.861,0.526-0.981,1.056c-0.128,0.565,0.17,0.971,0.586,1.296
			c0.591,0.462,1.298,0.7,1.98,0.98c0.713,0.293,1.421,0.596,2.025,1.088c1.792,1.461,1.528,4.007-0.527,5.072
			C60.578,59.49,59.685,59.659,58.727,59.605z"/>
		<path fill="#E6205B" stroke="#E6205B" stroke-miterlimit="10" d="M49.809,53.334c0,0.975-0.062,1.954,0.015,2.923
			c0.116,1.467,1.095,2.01,2.422,1.417c0.331-0.148,0.691-0.518,0.991-0.021c0.251,0.417-0.088,0.712-0.36,0.982
			c-0.9,0.892-2.502,1.279-3.524,0.791c-1.194-0.569-1.548-1.624-1.527-2.865c0.027-1.596,0.038-3.192,0.074-4.787
			c0.019-0.831-0.151-1.459-1.16-1.519c-0.268-0.016-0.573-0.188-0.6-0.556c-0.02-0.271,0.122-0.467,0.357-0.557
			c1.316-0.509,1.851-1.669,2.39-2.829c0.157-0.337,0.229-0.824,0.762-0.658c0.532,0.166,0.31,0.615,0.25,0.973
			c-0.322,1.914-0.309,1.934,1.593,1.984c0.412,0.011,0.825-0.002,1.237,0.003c0.461,0.006,0.61,0.29,0.602,0.7
			c-0.007,0.394-0.206,0.595-0.607,0.595c-0.768,0-1.538,0.03-2.305,0.001c-0.51-0.019-0.68,0.189-0.67,0.675
			c0.02,0.916,0.006,1.832,0.006,2.749C49.772,53.334,49.79,53.334,49.809,53.334z"/>
	</g>
	<g display="inline">
		<path fill="#E6205B" d="M53.824,107.646C24.145,107.646,0,83.502,0,53.823S24.145,0,53.824,0s53.824,24.145,53.824,53.823
			S83.502,107.646,53.824,107.646z M53.824,2C25.248,2,2,25.248,2,53.823s23.248,51.823,51.824,51.823s51.824-23.248,51.824-51.823
			S82.399,2,53.824,2z"/>
	</g>
</g>
<g id="Facebook" display="none">
	<g display="inline">
		<path fill="#E6205B" d="M51.615,61.249c0-4.859,0-9.641,0-14.482c1.051-0.171,2.086-0.339,3.182-0.517c0,1.694,0,3.309,0,4.964
			c0.389,0.053,0.701-0.112,1.023-0.162c0.898-0.14,1.796-0.171,2.691-0.023c1.477,0.244,2.207,0.952,2.38,2.434
			c0.197,1.693,0.21,3.401-0.006,5.091c-0.206,1.609-1.136,2.534-2.722,2.87C55.985,61.884,53.828,61.586,51.615,61.249z
			 M54.82,59.03c0.598,0,1.118,0.029,1.632-0.007c0.776-0.055,1.269-0.507,1.294-1.233c0.036-1.056,0.023-2.115,0.005-3.172
			c-0.009-0.522-0.308-0.876-0.816-0.966c-0.745-0.132-1.465-0.036-2.116,0.41C54.82,55.706,54.82,57.334,54.82,59.03z"/>
		<path fill="#E6205B" d="M88.91,61.503c-0.931-1.538-1.869-3.087-2.808-4.636c-0.045,0.01-0.091,0.021-0.136,0.031
			c0,1.517,0,3.034,0,4.597c-1.107,0-2.133,0-3.198,0c0-4.9,0-9.779,0-14.729c1.025-0.169,2.057-0.34,3.156-0.521
			c0,3.135,0,6.188,0,9.241c0.047,0.019,0.095,0.039,0.142,0.058c0.949-1.485,1.897-2.97,2.843-4.45c1.145,0,2.255,0,3.468,0
			c-1.093,1.725-2.137,3.373-3.207,5.063c1.053,1.757,2.106,3.514,3.205,5.347C91.178,61.503,90.088,61.503,88.91,61.503z"/>
		<path fill="#E6205B" d="M71.345,56.229c0,0.56,0.021,1.121-0.004,1.68c-0.083,1.877-1.145,3.142-2.98,3.544
			c-1.21,0.265-2.426,0.256-3.625-0.064c-1.502-0.401-2.418-1.384-2.656-2.918c-0.225-1.449-0.219-2.917,0-4.364
			c0.231-1.531,1.144-2.519,2.654-2.918c1.303-0.345,2.615-0.347,3.913,0.004c1.595,0.431,2.578,1.649,2.677,3.297
			c0.035,0.578,0.006,1.159,0.006,1.739C71.335,56.229,71.34,56.229,71.345,56.229z M65.182,56.292c0.004,0,0.007,0,0.011,0
			c0,0.519-0.031,1.04,0.007,1.556c0.054,0.731,0.579,1.148,1.404,1.176c0.839,0.028,1.502-0.395,1.538-1.098
			c0.054-1.055,0.058-2.118-0.003-3.172c-0.048-0.832-0.597-1.183-1.578-1.15c-0.871,0.03-1.336,0.44-1.375,1.251
			C65.163,55.333,65.182,55.813,65.182,56.292z"/>
		<path fill="#E6205B" d="M72.388,56.141c-0.041-0.72-0.094-1.449,0.06-2.154c0.339-1.559,1.324-2.522,2.874-2.863
			c1.206-0.265,2.427-0.268,3.629,0.047c1.582,0.415,2.505,1.46,2.718,3.07c0.168,1.272,0.134,2.56,0.031,3.837
			c-0.154,1.902-1.309,3.101-3.194,3.424c-1.093,0.188-2.194,0.187-3.279-0.077c-1.662-0.405-2.679-1.577-2.83-3.304
			C72.34,57.466,72.388,56.801,72.388,56.141z M75.546,56.351c-0.001,0-0.002,0-0.003,0c0,0.44-0.009,0.881,0.002,1.321
			c0.021,0.872,0.529,1.335,1.466,1.35c0.934,0.015,1.498-0.456,1.52-1.314c0.023-0.92,0.022-1.842,0.006-2.763
			c-0.016-0.888-0.521-1.334-1.472-1.342c-0.966-0.008-1.478,0.424-1.515,1.307C75.529,55.389,75.546,55.871,75.546,56.351z"/>
		<path fill="#E6205B" d="M50.425,57.222c-1.984,0-3.915,0-5.834,0c-0.189,1.18,0.188,1.7,1.302,1.783
			c1.303,0.098,2.596-0.041,3.881-0.26c0.113-0.019,0.229-0.025,0.377-0.041c0,0.844,0,1.659,0,2.559
			c-2.204,0.374-4.416,0.797-6.597-0.082c-1.373-0.553-2.02-1.711-2.17-3.141c-0.117-1.116-0.091-2.24-0.029-3.359
			c0.118-2.142,1.145-3.299,3.272-3.643c1.091-0.176,2.193-0.168,3.27,0.159c1.322,0.401,2.156,1.257,2.427,2.625
			C50.543,54.931,50.395,56.047,50.425,57.222z M47.234,55.073c0.071-0.666,0.053-1.256-0.547-1.577
			c-0.555-0.297-1.17-0.316-1.698,0.072c-0.51,0.375-0.523,0.926-0.41,1.506C45.476,55.073,46.327,55.073,47.234,55.073z"/>
		<path fill="#E6205B" d="M27.925,55.668c0-0.273-0.001-0.41,0-0.547c0.009-1.045-0.292-1.361-1.351-1.373
			c-1.04-0.012-2.079-0.003-3.22-0.003c0.086-0.875,0.168-1.716,0.249-2.538c0.051-0.045,0.08-0.095,0.109-0.095
			c1.579-0.001,3.161-0.13,4.735,0.1c1.62,0.237,2.422,1.019,2.614,2.649c0.234,1.994,0.061,4,0.104,6
			c0.012,0.536,0.002,1.072,0.002,1.647c-0.908,0-1.761,0-2.622,0c-0.195-0.119-0.083-0.372-0.23-0.558
			c-0.547,0.133-1.049,0.436-1.618,0.547c-0.554,0.108-1.106,0.171-1.668,0.139c-1.129-0.065-2.036-0.534-2.469-1.609
			c-0.461-1.144-0.501-2.324,0.245-3.383c0.528-0.75,1.374-0.935,2.231-0.967C25.972,55.64,26.911,55.668,27.925,55.668z
			 M27.906,57.744c-0.587,0-1.106-0.028-1.62,0.008c-0.485,0.034-0.841,0.24-0.795,0.828c0.042,0.537,0.334,0.787,0.849,0.815
			c0.58,0.031,1.078-0.205,1.566-0.452C27.906,58.545,27.906,58.188,27.906,57.744z"/>
		<path fill="#E6205B" d="M22.464,48.577c-0.547,0.025-1.062,0.047-1.577,0.071c-0.534,0.025-0.805,0.296-0.799,0.839
			c0.005,0.515,0.001,1.03,0.001,1.607c0.823,0,1.593,0,2.413,0c-0.094,0.896-0.18,1.724-0.272,2.603c-0.696,0-1.368,0-2.118,0
			c0,2.621,0,5.19,0,7.802c-1.104,0-2.132,0-3.223,0c0-2.562,0-5.115,0-7.683c-0.556-0.164-1.082-0.012-1.619-0.12
			c0-0.862,0-1.711,0-2.618c0.528,0,1.021,0,1.6,0c0-0.587-0.005-1.119,0.001-1.652c0.023-2.251,0.822-3.19,3.041-3.437
			c0.827-0.092,1.672-0.015,2.552-0.015C22.464,46.849,22.464,47.694,22.464,48.577z"/>
		<path fill="#E6205B" d="M40.292,51.361c0,0.859,0,1.655,0,2.493c-0.464,0.04-0.883-0.108-1.308-0.163
			c-0.797-0.103-1.596-0.161-2.395-0.067c-0.751,0.088-1.082,0.427-1.104,1.174c-0.029,1-0.029,2.003,0.002,3.003
			c0.021,0.708,0.293,0.998,0.997,1.143c1.146,0.237,2.269-0.039,3.396-0.187c0.117-0.015,0.235-0.032,0.397-0.054
			c0,0.852,0,1.682,0,2.553c-1.547,0.35-3.1,0.588-4.682,0.278c-1.961-0.385-3.083-1.591-3.291-3.603
			c-0.111-1.074-0.113-2.165-0.001-3.24c0.222-2.148,1.432-3.383,3.622-3.675C37.384,50.822,38.838,50.967,40.292,51.361z"/>
	</g>
	<g display="inline">
		<path fill="#E6205B" d="M53.824,107.646C24.145,107.646,0,83.502,0,53.823S24.145,0,53.824,0s53.824,24.145,53.824,53.823
			S83.502,107.646,53.824,107.646z M53.824,2C25.248,2,2,25.248,2,53.823s23.248,51.823,51.824,51.823s51.824-23.248,51.824-51.823
			S82.399,2,53.824,2z"/>
	</g>
</g>
<g id="Instagram" display="none">
	<g display="inline">
		<path fill="#E6205B" d="M86.494,50.095c-1.132,1.96-1.43,3.985-1.61,6.041c-0.016,0.187,0.002,0.376-0.016,0.562
			c-0.057,0.575,0.234,1.32-0.755,1.427c-1.152,0.126-1.641-0.176-1.907-1.317c-0.66,0.747-1.298,1.466-2.416,1.292
			c-1.094-0.17-1.546-0.952-1.916-1.958c-0.723,0.97-1.469,1.792-2.717,1.947c-1.302,0.162-2.145-0.433-2.78-1.55
			c-0.163,0.233-0.28,0.413-0.411,0.583c-0.943,1.233-2.388,1.338-3.48,0.232c-0.967-0.978-1.256-2.222-1.202-3.536
			c0.04-0.996,0.228-1.985,0.311-2.981c0.023-0.272,0.464-0.741-0.099-0.808c-0.488-0.058-1.244-0.385-1.497,0.314
			c-0.873,2.417-2.229,4.532-3.837,6.507c-0.228,0.28-0.146,0.593-0.151,0.897c-0.024,1.592,0.111,3.189-0.231,4.767
			c-0.501,2.311-2.193,3.644-4.158,3.259c-1.946-0.381-2.766-2.064-1.854-3.829c0.646-1.25,1.705-2.143,2.705-3.085
			c0.41-0.386,0.813-0.779,1.237-1.148c0.324-0.282,0.455-0.577,0.158-1.052c-0.741,0.8-1.554,1.414-2.686,1.472
			c-1.209,0.061-1.873-0.697-2.56-1.622c-0.617,0.853-1.187,1.743-2.411,1.598c-1.16-0.137-1.683-0.955-2.066-1.951
			c-1.86,2.635-4.766,2.838-5.97-0.655c-0.767,1.213-1.321,2.823-3.118,2.5c-1.874-0.337-1.999-2.08-2.368-3.695
			c-0.467,0.8-0.829,1.512-1.354,2.117c-1.414,1.631-3.774,2.178-5.732,1.32c-0.933-0.409-1.062-0.977-0.436-1.746
			c0.408-0.501,0.797-0.493,1.277-0.111c0.581,0.462,1.211,0.876,1.927,0.264c0.544-0.465,0.523-1.569,0.003-2.34
			c-0.426-0.631-1.035-1.081-1.579-1.595c-0.421-0.398-0.519,0.016-0.666,0.254c-0.641,1.036-1.266,2.083-1.905,3.12
			c-0.546,0.886-1.168,1.707-2.118,2.202c-1.047,0.546-1.812,0.239-2.197-0.887c-0.33-0.964-0.289-1.97-0.285-2.971
			c0.007-1.525,0.002-3.051,0.002-4.608c-0.527,0.361-0.837,0.97-1.161,1.542c-1.091,1.926-1.688,4.024-2.086,6.187
			c-0.088,0.477-0.044,1.013-0.819,0.991c-0.741-0.021-1.346-0.175-1.418-1.009c-0.076-0.869-0.063-1.748-0.063-2.622
			c0-2.001,0.005-4.003,0.036-6.004c0.006-0.409-0.242-1.018,0.559-1.028c0.886-0.012,1.47,0.428,1.476,1.153
			c0.011,1.239,0.003,2.479,0.141,3.752c0.251-0.587,0.494-1.179,0.756-1.761c0.346-0.771,0.731-1.523,1.277-2.177
			c0.883-1.057,1.707-1.207,2.883-0.547c0.563,0.316,0.876,0.742,0.847,1.433c-0.073,1.718-0.121,3.438-0.141,5.157
			c-0.006,0.506-0.153,1.23,0.416,1.416c0.526,0.172,0.791-0.501,1.056-0.894c0.541-0.802,1.006-1.655,1.538-2.463
			c0.48-0.729,0.675-1.357,0.254-2.282c-0.629-1.383,0.867-3.154,2.391-2.999c0.711,0.072,1.077,0.47,0.949,1.211
			c-0.104,0.598-0.377,1.136-0.759,1.593c-0.321,0.384-0.289,0.615,0.131,0.874c0.371,0.228,0.711,0.51,1.055,0.78
			c1.094,0.857,2.12,1.761,2.055,3.496c1.009-0.996,1.612-1.989,1.649-3.235c0.043-1.437-0.004-2.877,0.033-4.315
			c0.014-0.551-0.203-0.718-0.711-0.691c-0.373,0.019-0.75-0.021-1.125-0.029c-0.412-0.009-0.87,0.041-0.808-0.595
			c0.052-0.536,0.077-1.104,0.836-1.116c0.031,0,0.063,0.001,0.094,0c1.856-0.093,1.851-0.094,1.91-2.058
			c0.017-0.566-0.154-1.268,0.833-1.204c1.176,0.076,1.657,0.427,1.649,1.279c-0.021,2.21-0.021,2.21,2.214,2.3
			c0.939,0.037,1.185,0.308,0.902,0.997c-0.114,0.277-0.295,0.478-0.623,0.484c-0.125,0.002-0.251-0.004-0.375,0.011
			c-0.731,0.089-1.68-0.322-2.146,0.213c-0.446,0.513-0.172,1.442-0.172,2.186c0.002,1.812-0.24,3.624-0.029,5.435
			c0.071,0.611,0.046,1.387,0.784,1.546c0.783,0.168,1.116-0.565,1.432-1.129c0.399-0.712,0.634-1.47,0.643-2.317
			c0.015-1.354,0.277-2.675,0.92-3.887c1.114-2.101,3.004-2.424,4.786-0.781c0.168-0.814,0.737-0.785,1.333-0.628
			c0.57,0.15,1.031,0.372,0.997,1.129c-0.077,1.717-0.104,3.437-0.123,5.157c-0.008,0.75,0.049,1.506,0.313,2.217
			c0.276,0.744,0.841,0.87,1.347,0.279c0.426-0.497,0.726-1.041,0.624-1.784c-0.188-1.371-0.104-2.744,0.271-4.09
			c0.187-0.668,0.456-1.298,0.856-1.864c1.288-1.821,2.763-1.983,4.458-0.442c0.139-0.872,0.736-0.739,1.317-0.622
			c0.611,0.123,0.973,0.386,0.956,1.13c-0.05,2.118-0.017,4.238-0.017,6.617c1.133-1.671,1.973-3.228,2.406-4.993
			c0.082-0.334-0.175-0.506-0.316-0.74c-0.56-0.932-0.151-2.158,0.819-2.48c0.827-0.274,1.492,0.084,1.533,0.949
			c0.029,0.62,0.254,0.655,0.739,0.529c0.483-0.125,0.974-0.237,1.468-0.296c1.182-0.14,1.679,0.452,1.427,1.625
			c-0.196,0.916-0.37,1.837-0.534,2.759c-0.172,0.97-0.112,1.942,0.161,2.879c0.156,0.534,0.245,1.323,1.065,1.164
			c0.753-0.146,1.079-0.802,1.127-1.544c0.018-0.275-0.079-0.555-0.112-0.835c-0.214-1.779-0.005-3.502,0.785-5.118
			c1.089-2.227,3.019-2.581,4.861-0.897c0.099-0.693,0.517-0.821,1.12-0.678c0.642,0.153,1.191,0.309,1.155,1.179
			c-0.072,1.749-0.073,3.501-0.102,5.251c-0.011,0.661,0.066,1.317,0.267,1.943c0.282,0.88,0.948,1.005,1.521,0.27
			c0.502-0.643,0.857-1.35,0.841-2.227c-0.033-1.907-0.006-3.815,0.006-5.722c0.003-0.42-0.112-0.927,0.575-0.955
			c0.943-0.037,1.59,0.342,1.607,1.004c0.024,0.905,0.006,1.811,0.144,2.758c0.359-0.924,0.72-1.846,1.075-2.771
			c0.255-0.664,0.596-1.192,1.443-0.971c0.822,0.215,1.445,0.621,1.452,1.578c0.008,1.121,0.002,2.242,0.002,3.397
			c0.587-0.031,0.533-0.421,0.6-0.68c0.297-1.151,0.676-2.272,1.1-3.382c0.257-0.673,0.615-1.069,1.394-0.899
			c1.093,0.238,1.685,0.762,1.67,1.586c-0.033,1.719-0.113,3.438-0.022,5.158c0.032,0.597,0.123,1.18,0.309,1.748
			c0.123,0.375,0.308,0.73,0.741,0.745c0.434,0.015,0.656-0.339,0.794-0.695c0.157-0.406,0.263-0.832,0.382-1.253
			c0.078-0.275,0.135-0.612,0.506-0.544c0.297,0.055,0.286,0.364,0.278,0.619c-0.025,0.792-0.163,1.56-0.577,2.246
			c-0.907,1.504-2.859,1.46-3.747-0.096c-0.572-1.003-0.709-2.131-0.75-3.259c-0.042-1.149-0.009-2.301-0.009-3.66
			c-0.514,0.755-0.706,1.434-0.901,2.104c-0.395,1.352-0.671,2.73-0.761,4.14c-0.025,0.395,0.066,0.846-0.48,0.99
			c-0.486,0.128-0.93,0.068-1.312-0.281c-0.412-0.376-0.604-0.863-0.693-1.4c-0.225-1.359-0.311-2.731-0.373-4.106
			C86.694,51.056,86.747,50.645,86.494,50.095z M56.333,53.486c-0.006,0.553-0.007,1.239,0.2,1.908
			c0.201,0.649,0.454,1.298,1.231,1.36c0.734,0.058,1.116-0.522,1.379-1.093c0.782-1.699,0.932-3.484,0.566-5.308
			c-0.133-0.664-0.405-1.331-1.168-1.415c-0.734-0.08-1.201,0.45-1.521,1.056C56.466,51.042,56.318,52.182,56.333,53.486z
			 M49.764,52.08c0.039-0.661-0.022-1.314-0.228-1.94c-0.203-0.617-0.547-1.175-1.259-1.228c-0.715-0.053-1.171,0.437-1.407,1.041
			c-0.713,1.819-0.833,3.691-0.315,5.583c0.155,0.564,0.475,1.065,1.102,1.146c0.654,0.084,1.011-0.417,1.297-0.906
			C49.619,54.635,49.735,53.364,49.764,52.08z M74.098,53.269c0.005,0.694-0.012,1.477,0.222,2.236
			c0.191,0.621,0.461,1.225,1.195,1.282c0.69,0.054,1.066-0.481,1.325-1.025c0.837-1.761,0.943-3.61,0.506-5.487
			c-0.147-0.632-0.509-1.176-1.244-1.23c-0.733-0.054-1.129,0.441-1.422,1.028C74.191,51.052,74.159,52.119,74.098,53.269z
			 M60.125,59.06c-1.4,1.331-2.592,2.497-3.091,4.177c-0.178,0.598-0.065,1.166,0.503,1.46c0.585,0.303,1.218,0.272,1.725-0.237
			c0.387-0.389,0.543-0.895,0.652-1.421C60.169,61.807,60.073,60.562,60.125,59.06z"/>
		<path fill="#E6205B" d="M15.538,43.381c-2.055,1.745-2.75,5.056-1.576,7.297c0.127,0.242,0.385,0.501,0.116,0.748
			c-0.235,0.215-0.527,0.034-0.782-0.081c-1.306-0.588-2.165-2.112-1.928-3.54c0.394-2.376,1.609-4.237,3.645-5.535
			c0.471-0.3,0.968-0.546,1.582-0.436c1.194,0.213,1.468,0.51,1.469,1.717c0.001,3.751,0.004,7.501,0,11.252
			c-0.001,1.099-0.095,2.189-0.545,3.21c-0.374,0.849-0.908,1.567-1.798,1.943c-0.165,0.07-0.342,0.189-0.525,0.041
			c-0.182-0.146-0.132-0.332-0.065-0.511c0.631-1.685,0.506-3.446,0.514-5.192c0.015-3.282,0.026-6.563,0.029-9.845
			C15.674,44.121,15.771,43.774,15.538,43.381z"/>
	</g>
	<g display="inline">
		<path fill="#E6205B" d="M53.824,107.646C24.145,107.646,0,83.502,0,53.823S24.145,0,53.824,0s53.823,24.145,53.823,53.823
			S83.502,107.646,53.824,107.646z M53.824,2C25.248,2,2,25.248,2,53.823s23.248,51.823,51.824,51.823
			c28.575,0,51.823-23.248,51.823-51.823S82.399,2,53.824,2z"/>
	</g>
</g>
<g id="Pinterest" display="none">
	<g display="inline">
		<path fill="#E6205B" d="M83.815,45.549c0.26-0.12,0.521-0.24,0.781-0.361c0.269-0.022,0.538-0.042,0.753-0.236
			c0.688,0.036,1.373-0.097,2.067,0.034c2.604,0.493,4.028,2.529,3.554,5.131c-0.041,0.227-0.131,0.446-0.16,0.673
			c-0.067,0.519-0.511,1.08-0.257,1.51c0.254,0.431,0.91,0.126,1.386,0.187c0.283,0.036,0.584,0.081,0.496,0.44
			c-0.124,0.504,0.038,1.213-0.729,1.345c-0.385,0.066-0.791,0.029-1.185,0.01c-0.544-0.027-0.808,0.2-0.762,0.755
			c-0.142,0.163-0.161,0.354-0.131,0.557c-0.329,0.709-0.518,1.458-0.623,2.23c-0.046,0.187-0.092,0.373-0.138,0.56
			c-0.27,0.606-0.551,1.269,0.052,1.782c0.471,0.401,1.025,0.287,1.435-0.227c0.193-0.093,0.31-0.246,0.355-0.455
			c0.074-0.105,0.179-0.199,0.217-0.316c0.184-0.567,0.643-0.58,1.032-0.392c0.438,0.212,0.077,0.585-0.021,0.853
			c-0.36,0.99-1.096,1.685-1.916,2.301c0,0-0.044-0.01-0.044-0.01c-0.143,0.052-0.287,0.104-0.43,0.155
			c-0.12,0.044-0.239,0.089-0.359,0.133c-0.212,0.02-0.423,0.039-0.635,0.059c-2.113-0.193-2.672-0.938-2.28-3.031
			c0.036-0.191,0.049-0.386,0.073-0.579c0.171-0.393,0.313-0.792,0.297-1.23c0.272-0.795,0.249-1.656,0.568-2.446
			c0.108-0.267,0.087-0.609-0.396-0.562c-0.47,0.046-0.937-0.021-0.786-0.649c0.126-0.522-0.001-1.401,0.88-1.291
			c1.086,0.135,1.38-0.433,1.538-1.298c0.107-0.585,0.295-1.158,0.383-1.745c0.24-1.594-0.371-2.697-1.668-3.081
			c-1.508-0.447-3.159,0.272-3.766,1.638c-0.726,1.634-0.419,3.39,0.82,4.693c0.273,0.288,0.588,0.55,0.8,0.878
			c0.514,0.793,0.278,1.412-0.619,1.757c-0.058-0.049-0.116-0.048-0.173,0.002c-0.138-0.029-0.276-0.058-0.415-0.087
			c-0.061-0.039-0.122-0.079-0.183-0.118c-0.181-0.17-0.362-0.34-0.543-0.51c0.057-0.091,0.005-0.119-0.076-0.129
			c-0.037-0.078-0.074-0.156-0.111-0.234c-0.647-0.564-1.365-0.435-2.092-0.212c-0.869,0.926-0.73,1.355,0.424,1.86
			c1.123,0.491,2.308,0.89,3.255,1.723c0.043,0.06,0.087,0.12,0.13,0.18c0.041,0.085,0.083,0.169,0.124,0.254
			c-0.05,0.088-0.012,0.124,0.077,0.129c0.021,0.086,0.043,0.173,0.064,0.259c0.004,0.393,0.007,0.786,0.011,1.178
			c-0.032,0.121-0.065,0.242-0.097,0.363c-0.126,0.027-0.179,0.102-0.153,0.23c-0.412,0.791-1.061,1.328-1.849,1.713
			c-0.06,0.026-0.119,0.052-0.179,0.079c-0.136,0.025-0.271,0.05-0.407,0.075c-0.335-0.018-0.665-0.001-0.977,0.14
			c-0.136,0.003-0.273,0.005-0.409,0.008c-0.257-0.113-0.52-0.138-0.79-0.048c-0.138-0.024-0.276-0.048-0.414-0.073
			c-0.049-0.059-0.107-0.071-0.175-0.034c-0.129-0.024-0.259-0.048-0.388-0.072c-0.065-0.029-0.131-0.058-0.196-0.087
			c-0.124-0.041-0.247-0.081-0.371-0.122c-0.079-0.04-0.159-0.08-0.238-0.12c-0.056-0.026-0.113-0.052-0.169-0.077
			c-0.156-0.233-0.381-0.366-0.642-0.448c-0.057-0.048-0.114-0.095-0.17-0.143c-0.2-0.369-0.399-0.74-0.827-0.21
			c-0.267,0.167-0.535,0.333-0.802,0.5c-0.063,0.038-0.127,0.076-0.19,0.114l0.002-0.001c-0.169-0.015-0.308,0.035-0.404,0.182
			c-0.373,0.051-0.736,0.134-1.044,0.368c-0.105,0.019-0.211,0.039-0.317,0.059c-0.412,0.026-0.824,0.053-1.236,0.079
			c-0.189-0.004-0.377-0.007-0.566-0.011c-0.271-0.025-0.543-0.05-0.814-0.075c-0.305-0.194-0.627-0.346-0.991-0.388
			c-0.326-0.291-0.791-0.406-1.032-0.806c0.003-0.272-0.187-0.421-0.37-0.574c-0.026-0.079-0.053-0.157-0.079-0.236
			c-0.036-0.065-0.073-0.13-0.109-0.195c-0.024-0.068-0.048-0.136-0.073-0.204c0.037-0.156-0.004-0.286-0.127-0.389
			c-0.064-0.666,0.194-1.354-0.132-2.003c0,0,0.004-0.043,0.004-0.043l-0.008,0.043c-0.184-0.184-0.41-0.223-0.657-0.193
			c-0.354-0.257-0.568,0.052-0.82,0.204c-0.536-0.023-1.072-0.047-1.608-0.07c-0.188-0.24-0.375-0.48-0.563-0.72
			c0.009-0.16,0.018-0.32,0.028-0.481c0.051-0.104,0.101-0.208,0.152-0.311c0.158-0.125,0.316-0.251,0.474-0.376l0.064,0.03
			l0.036-0.064c0.08-0.01,0.16-0.02,0.241-0.03c0.919-0.102,0.625-0.574,0.321-1.05l-0.026-0.025
			c-0.532-0.479-1.001-0.255-1.457,0.129c-0.215,0.057-0.371,0.177-0.426,0.403c-0.487,0.338-0.85,0.758-0.907,1.379
			c-0.611,1.04-0.963,2.171-1.186,3.348c-0.086,0.343-0.171,0.687-0.257,1.03c-0.023,0.107-0.046,0.214-0.069,0.322
			c-0.028,0.086-0.055,0.173-0.083,0.259c-0.107,0.238-0.214,0.475-0.322,0.713c-0.122,0.039-0.244,0.078-0.366,0.117
			c-0.604-0.2-1.27,0.085-1.857-0.238c0-0.431,0.337-0.829,0.146-1.409c-0.356,0.313-0.641,0.564-0.926,0.815
			c-0.054,0.031-0.108,0.061-0.163,0.092c-0.071,0.039-0.143,0.078-0.214,0.117c-0.06,0.024-0.12,0.047-0.181,0.071
			c-0.111-0.024-0.182,0.016-0.209,0.128l0.01-0.007c-0.165-0.007-0.306,0.039-0.401,0.184c-0.132,0.032-0.263,0.063-0.395,0.095
			c-0.093,0.037-0.185,0.073-0.278,0.11c-0.169,0.032-0.339,0.065-0.508,0.097c-0.597,0.002-1.195,0.005-1.792,0.007
			c-0.393-0.106-0.785-0.213-1.178-0.319c-0.084-0.16-0.235-0.194-0.396-0.206c-0.074-0.049-0.147-0.099-0.221-0.148
			c-0.068-0.051-0.136-0.102-0.204-0.153c-0.082-0.079-0.164-0.159-0.246-0.238c-0.05-0.053-0.1-0.105-0.15-0.158
			c-0.069-0.081-0.138-0.163-0.207-0.244c-0.639-1.338-0.795-0.027-1.148,0.209l-0.021,0.022c-0.06,0.057-0.119,0.113-0.179,0.17
			c-0.213,0.156-0.426,0.311-0.639,0.467c-0.055,0.043-0.109,0.087-0.164,0.13l-0.017,0.009c-0.168-0.013-0.311,0.03-0.405,0.182
			c-0.765,0.176-1.541,0.225-2.323,0.178c-0.288-0.188-0.576-0.376-0.864-0.563c-0.058-0.073-0.116-0.146-0.174-0.219
			c-0.214-0.715-0.423-0.259-0.632,0.003c-0.132,0.09-0.264,0.181-0.396,0.271c-0.062,0.044-0.124,0.088-0.186,0.132l-0.003,0.001
			c-0.309,0.122-0.617,0.243-0.926,0.365c-0.418,0.001-0.835,0.002-1.253,0.004c-0.136-0.038-0.273-0.077-0.409-0.115
			c-1.035-0.597-1.332-1.5-1.066-2.621c0.29-1.222,0.608-2.437,0.895-3.66c0.131-0.557,0.242-1.169-0.371-1.508
			c-0.563-0.311-1.154-0.192-1.687,0.165c-0.837,0.56-1.108,1.448-1.351,2.349c-0.396,1.467-0.793,2.934-1.172,4.406
			c-0.098,0.38-0.219,0.781-0.675,0.681c-0.588-0.128-1.412,0.454-1.739-0.388c-0.209-0.539-0.38-0.29-0.613-0.138
			c-0.59,0.384-1.199,0.675-1.933,0.681c-1.508,0.011-2.37-0.815-2.136-2.285c0.376-2.352,1.138-4.616,1.752-6.913
			c0.177-0.663,0.744-0.394,1.131-0.554c0.331,0.136,0.666,0.104,1.003,0.03c0.083,0.048,0.166,0.097,0.248,0.145
			c0.006,0.195,0.011,0.39,0.017,0.585c-0.03,0.112-0.061,0.223-0.091,0.335c-0.03,0.087-0.061,0.175-0.091,0.262
			c-0.03,0.137-0.059,0.273-0.089,0.41c-0.167,0.167-0.199,0.372-0.163,0.595c-0.059,0.048-0.073,0.108-0.043,0.177
			c-0.103,0.037-0.145,0.103-0.101,0.211c-0.028,0.141-0.055,0.283-0.083,0.424c-0.114,0.098-0.153,0.218-0.103,0.363
			c-0.034,0.14-0.068,0.279-0.102,0.419c-0.022,0.011-0.062,0.019-0.063,0.032c-0.004,0.043,0.005,0.088,0.01,0.132
			c-0.161,0.185-0.18,0.403-0.146,0.634c-0.208,0.372-0.363,0.758-0.336,1.196c-0.02,0.133-0.039,0.265-0.059,0.398
			c-0.174,0.388-0.245,0.774,0.015,1.156l0.013,0.028c0.014,0.235,0.153,0.319,0.371,0.306c0.227,0.088,0.447,0.1,0.648-0.066
			l0.068,0.032l0.04-0.071c0.4-0.051,0.656-0.29,0.827-0.639c0.097,0.005,0.145-0.033,0.118-0.135
			c0.142-0.121,0.273-0.249,0.281-0.453c0.091-0.004,0.13-0.042,0.087-0.134c0.83-1.466,1.025-3.134,1.469-4.72
			c0.447-1.594,0.762-2.042,2.199-1.417c0.987,0.429,1.517,0.006,2.251-0.196c2.073-0.573,3.552,0.829,3.114,2.989
			c-0.21,1.036-0.58,2.04-0.799,3.075c-0.135,0.638-0.51,1.502,0.378,1.817c0.93,0.33,1.345-0.477,1.668-1.188
			c0.62-1.367,0.845-2.854,1.253-4.286c0.177-0.623-0.308-0.502-0.649-0.541c-0.331-0.038-0.883,0.109-0.782-0.453
			c0.092-0.512-0.03-1.408,0.85-1.308c1.136,0.129,1.436-0.459,1.562-1.377c0.045-0.325,0.166-0.64,0.251-0.96
			c0.221-0.826,1.549-1.543,2.337-1.263c0.356,0.126,0.288,0.373,0.212,0.647c-0.204,0.733-0.376,1.476-0.591,2.206
			c-0.165,0.56-0.014,0.746,0.591,0.785c0.4,0.026,1.198-0.439,1.152,0.529c-0.038,0.801-0.33,1.448-1.348,1.248
			c-0.81-0.159-1.184,0.17-1.344,0.991c-0.241,1.233-0.632,2.436-0.916,3.661c-0.11,0.476-0.217,1.048,0.338,1.334
			c0.537,0.276,1.028,0.035,1.444-0.352c0.683-0.636,1.032-1.433,1.2-2.342c0.415-2.249,1.431-4.052,3.724-4.875
			c0.901-0.323,1.831-0.331,2.748-0.16c1.167,0.218,2,1.102,2.179,2.184c0.174,1.048-0.461,2.377-1.451,2.96
			c-1.208,0.711-2.53,0.77-3.856,0.511c-0.844-0.165-0.905,0.194-0.742,0.839c0.246,0.976,0.937,1.519,2.026,1.585
			c2.055,0.125,4.116-1.305,4.686-3.287c0.366-1.273,0.715-2.553,1.019-3.842c0.292-1.236,1.251-0.679,1.945-0.745
			c0.842-0.081,0.321,0.678,0.567,1.086c0.98-0.791,1.975-1.599,3.354-1.18c0.723,0.22,1.152,0.747,1.385,1.448
			c-0.036,0.064-0.03,0.123,0.019,0.178c0.002,0.209,0.004,0.419,0.006,0.628c0.008,0.109,0.015,0.218,0.023,0.327
			c-0.135,0.193-0.16,0.406-0.121,0.632c-0.127,0.227-0.023,0.366,0.195,0.397c0.235,0.034,0.323-0.133,0.335-0.346
			c0.225-0.418,0.449-0.836,0.674-1.254c0.138,0.022,0.178-0.059,0.185-0.175c0.069-0.076,0.137-0.152,0.206-0.227
			c0.056-0.058,0.112-0.117,0.169-0.175l0.028-0.028c0.059-0.057,0.118-0.114,0.177-0.172l0.022-0.022
			c0.063-0.058,0.125-0.117,0.188-0.175c0.151-0.007,0.241-0.091,0.292-0.227c0.452-0.209,0.905-0.418,1.357-0.627
			c1.036-0.25,2.072-0.261,3.109-0.009c0.871,0.441,1.548,1.046,1.749,2.057c-0.017,0.321-0.035,0.641-0.052,0.962
			c-0.024,0.145-0.049,0.29-0.073,0.436c-0.047,0.117-0.093,0.235-0.14,0.352c-0.178,0.253-0.356,0.506-0.534,0.76
			c-0.248,0.198-0.495,0.395-0.743,0.593c-0.27,0.115-0.541,0.231-0.811,0.346c-0.331,0.062-0.663,0.125-0.994,0.187
			c-0.506,0.003-1.012,0.006-1.518,0.009c-0.039-0.021-0.07-0.011-0.091,0.027c-0.327-0.177-0.746-0.342-1.001-0.081
			c-0.289,0.296-0.12,0.751,0.038,1.114c0.128,0.294,0.244,0.62,0.602,0.736c0.078,0.165,0.219,0.218,0.389,0.22
			c0.303,0.243,0.647,0.292,1.018,0.219c0.273,0.07,0.545,0.094,0.808-0.039c0.442,0.007,0.855-0.096,1.235-0.326
			c0.308-0.036,0.571-0.165,0.789-0.387c0.379-0.134,0.715-0.354,0.864-0.725c0.27-0.675,0.775-0.902,1.448-0.887
			c0.23,0.169,0.46,0.337,0.69,0.506c0.311,0.493-0.513,1.076,0.116,1.538c0.493,0.363,1.059,0.537,1.665,0.548
			c0.36,0.007,0.727-0.01,1.081-0.07c0.41-0.07,0.755-0.281,0.843-0.728c0.097-0.491-0.158-0.832-0.563-1.055
			c-0.667-0.367-1.392-0.591-2.126-0.786c-0.453-0.289-0.907-0.577-1.36-0.866c-0.138-0.202-0.275-0.404-0.413-0.606
			c-0.407-0.972-0.187-1.898,0.202-2.813c0.234-0.24,0.468-0.48,0.702-0.719c0.522-0.217,1.045-0.434,1.567-0.651
			c0.154,0.07,0.297,0.043,0.433-0.047c0.19,0.043,0.382,0.093,0.533-0.092c0.278-0.023,0.427-0.146,0.349-0.447
			c-0.112-0.419-0.224-0.838-0.336-1.258c-0.007-0.365-0.014-0.73-0.021-1.095C81.767,47.733,82.494,46.463,83.815,45.549z
			 M54.965,56.621c0.3-0.066,0.635-0.1,0.94-0.213c0.817-0.302,1.238-1.283,0.901-2.037c-0.267-0.598-1.12-0.763-1.92-0.367
			c-0.397,0.196-0.701,0.494-0.92,0.876c-0.246,0.428-0.641,0.933-0.403,1.361C53.805,56.673,54.462,56.498,54.965,56.621z
			 M72.517,56.818c0.22-0.042,0.449-0.074,0.672-0.132c0.707-0.182,1.17-0.611,1.274-1.353c0.077-0.544-0.096-1.016-0.627-1.226
			c-0.685-0.271-1.304-0.047-1.836,0.42c-0.172,0.151-0.333,0.333-0.441,0.532c-0.232,0.428-0.672,0.895-0.418,1.358
			C71.395,56.877,72.033,56.706,72.517,56.818z"/>
		<path fill="#E6205B" d="M18.421,63.585c-0.392-1.587-0.264-3.108,0.101-4.624c0.287-1.191,0.589-2.378,0.892-3.565
			c0.293-1.148,0.608-2.257,0.284-3.496c-0.256-0.978,0.005-1.989,0.741-2.775c0.541-0.577,1.208-0.839,1.977-0.502
			c0.753,0.33,0.936,1.01,0.86,1.742c-0.117,1.127-0.573,2.173-0.883,3.254c-0.357,1.243-0.192,1.976,0.583,2.486
			c0.812,0.535,1.882,0.421,2.763-0.293c1.853-1.502,2.619-5.759,1.407-7.817c-1.192-2.024-4.386-2.702-6.859-1.455
			c-2.654,1.338-3.639,4.443-2.225,7.07c0.34,0.632,0.14,1.248-0.255,1.633c-0.412,0.401-0.867-0.123-1.172-0.413
			c-1.549-1.473-1.653-3.343-1.217-5.256c0.651-2.855,3.169-4.91,6.452-5.412c3.183-0.486,6.172,0.782,7.676,3.258
			c2.31,3.802,0.052,9.81-4.043,10.742c-1.255,0.286-2.459,0.174-3.465-0.701c-0.53-0.461-0.667-0.29-0.8,0.288
			c-0.419,1.813-0.911,3.603-2.078,5.115c-0.142,0.183-0.276,0.373-0.429,0.547C18.675,63.477,18.574,63.503,18.421,63.585z"/>
		<path fill="#E6205B" d="M34.899,48.851c-0.015,0.344-0.03,0.687-0.045,1.031c-0.024,0.05-0.048,0.099-0.071,0.149
			c-0.043,0.084-0.087,0.169-0.13,0.253c-0.052,0.061-0.103,0.122-0.155,0.183c-0.08,0.079-0.159,0.159-0.239,0.238
			c-0.072,0.05-0.143,0.1-0.215,0.15c-0.536,0.421-1.115,0.561-1.676,0.1c-0.435-0.358-0.556-0.882-0.436-1.427
			c0.163-0.743,0.652-1.215,1.373-1.409c0.276-0.074,0.587-0.019,0.882-0.023C34.424,48.347,34.662,48.599,34.899,48.851z"/>
	</g>
	<g display="inline">
		<path fill="#E6205B" d="M53.823,107.646C24.145,107.646,0,83.502,0,53.823S24.145,0,53.823,0s53.823,24.145,53.823,53.823
			S83.502,107.646,53.823,107.646z M53.823,2C25.248,2,2,25.248,2,53.823s23.248,51.823,51.823,51.823s51.823-23.248,51.823-51.823
			S82.398,2,53.823,2z"/>
	</g>
</g>
<g id="Layer_5">
	<g>
		<path d="M11.644,42.299c0-0.204-0.034-0.357-0.153-0.477l-0.51-0.493c-0.034-0.051-0.119-0.102-0.119-0.152
			s0.034-0.103,0.102-0.103h2.125c1.768,0,2.686,1.088,2.686,3.145c0,1.955-0.595,2.618-1.258,3.026
			c0.663,0.34,1.292,1.054,1.292,2.94c0,2.465-0.782,3.638-2.176,3.638h-2.668c-0.068,0-0.102-0.051-0.102-0.102
			c0-0.052,0.085-0.085,0.119-0.153l0.51-0.493c0.119-0.119,0.153-0.271,0.153-0.476V42.299z M12.953,46.922h0.255
			c0.833,0,1.19-0.663,1.19-2.703c0-1.733-0.357-2.294-1.19-2.294h-0.255V46.922z M12.953,52.974h0.527
			c0.748,0,0.918-0.612,0.918-2.907c0-1.666-0.357-2.295-1.19-2.295h-0.255V52.974z"/>
		<path d="M17.525,42.299c0-0.204-0.034-0.357-0.153-0.477l-0.51-0.493c-0.034-0.051-0.119-0.102-0.119-0.152
			s0.034-0.103,0.102-0.103h2.668c0.068,0,0.102,0.052,0.102,0.103s-0.085,0.102-0.119,0.152l-0.51,0.493
			c-0.119,0.119-0.153,0.272-0.153,0.477V52.6c0,0.204,0.034,0.356,0.153,0.476l0.51,0.493c0.034,0.051,0.119,0.102,0.119,0.153
			c0,0.051-0.034,0.102-0.102,0.102h-2.668c-0.068,0-0.102-0.051-0.102-0.102c0-0.052,0.085-0.103,0.119-0.153l0.51-0.493
			c0.119-0.119,0.153-0.271,0.153-0.476V42.299z"/>
		<path d="M21.792,41.329c-0.051-0.051-0.119-0.102-0.119-0.152s0.017-0.103,0.102-0.103h2.652c0.068,0,0.102,0.052,0.102,0.103
			s-0.068,0.102-0.119,0.152l-0.51,0.493c-0.119,0.119-0.153,0.272-0.153,0.477v8.736c0,2.482-0.935,2.788-1.87,2.788
			c-1.479,0-1.802-1.904-1.802-3.535c0-0.137,0.034-0.204,0.136-0.204c0.085,0,0.153,0.067,0.17,0.17
			c0.272,2.022,0.799,2.72,1.275,2.72c0.459,0,0.782-0.374,0.782-1.225v-9.45c0-0.204-0.017-0.357-0.136-0.477L21.792,41.329z"/>
		<path d="M30.003,47.109c0,3.212-0.221,6.714-2.278,6.714c-2.04,0-2.261-3.502-2.261-6.714c0-2.448,0.221-6.035,2.261-6.035
			C29.782,41.074,30.003,44.661,30.003,47.109z M26.858,47.126c0,4.42,0.374,5.848,0.867,5.848c0.51,0,0.884-1.428,0.884-5.848
			c0-3.773-0.374-5.201-0.884-5.201C27.232,41.925,26.858,43.353,26.858,47.126z"/>
		<path d="M31.55,42.299c0-0.204-0.034-0.374-0.136-0.477l-0.527-0.493c-0.051-0.051-0.085-0.102-0.085-0.152
			s0.034-0.103,0.102-0.103h2.601c0.068,0,0.102,0.052,0.102,0.103s-0.034,0.102-0.085,0.152l-0.527,0.493
			c-0.085,0.103-0.136,0.272-0.136,0.477v9.247c0,0.747,0.068,1.428,0.867,1.428c0.629,0,0.799-0.681,0.799-1.428v-9.247
			c0-0.204-0.034-0.374-0.136-0.477l-0.527-0.493c-0.051-0.051-0.085-0.102-0.085-0.152s0.034-0.103,0.102-0.103h2.329
			c0.068,0,0.102,0.052,0.102,0.103s-0.034,0.102-0.085,0.152l-0.527,0.493c-0.085,0.103-0.136,0.272-0.136,0.477v9.688
			c0,1.054-0.816,1.836-1.972,1.836c-1.343,0-2.04-0.782-2.04-1.836V42.299z"/>
		<path d="M37.601,42.299c-0.034-0.137-0.119-0.289-0.204-0.392l-0.561-0.578c-0.051-0.067-0.102-0.118-0.102-0.187
			c0-0.051,0.051-0.068,0.136-0.068h2.686c0.068,0,0.119,0.018,0.119,0.068c0,0.068-0.034,0.119-0.085,0.17l-0.527,0.459
			c-0.136,0.119-0.221,0.255-0.187,0.391l0.85,3.179h0.034l0.952-3.179c0.034-0.136-0.051-0.271-0.204-0.391l-0.561-0.459
			c-0.068-0.051-0.102-0.102-0.102-0.17c0-0.051,0.085-0.068,0.153-0.068h2.465c0.068,0,0.136,0.018,0.136,0.068
			c0,0.068-0.051,0.136-0.102,0.187l-0.578,0.578c-0.085,0.085-0.153,0.255-0.187,0.392l-1.479,4.946l1.394,5.167
			c0.051,0.188,0.153,0.357,0.238,0.459l0.578,0.629c0.085,0.085,0.17,0.188,0.17,0.255c0,0.052-0.068,0.068-0.136,0.068h-2.72
			c-0.068,0-0.119-0.034-0.119-0.085c0-0.068,0.068-0.153,0.153-0.238l0.527-0.561c0.068-0.085,0.085-0.221,0.051-0.34l-0.816-3.043
			h-0.034l-0.816,2.992c-0.051,0.17-0.034,0.306,0.051,0.391l0.561,0.561c0.085,0.085,0.153,0.17,0.153,0.238
			c0,0.051-0.051,0.085-0.119,0.085h-2.533c-0.085,0-0.136-0.017-0.136-0.068c0-0.067,0.068-0.17,0.153-0.271l0.561-0.578
			c0.102-0.119,0.221-0.306,0.272-0.493l1.377-4.742L37.601,42.299z"/>
		<path d="M49.807,45.409c0,0.085-0.034,0.153-0.102,0.153c-0.085,0-0.119-0.085-0.136-0.188c-0.204-1.428-0.697-3.45-1.563-3.45
			c-0.748,0-0.884,1.614-0.884,5.201c0,5.1,0.374,5.848,1.139,5.848c0.935,0,1.292-3.128,1.292-3.281
			c0-0.085,0.051-0.136,0.136-0.136s0.119,0.051,0.119,0.153c0,2.516-0.374,4.113-1.87,4.113c-1.989,0-2.209-3.876-2.209-6.714
			c0-2.091,0.085-6.035,2.209-6.035c0.272,0,0.561,0.153,0.816,0.357c0.102,0.085,0.204,0.102,0.289,0.102s0.204-0.067,0.323-0.204
			c0.102-0.118,0.238-0.255,0.323-0.255c0.102,0,0.119,0.119,0.119,0.289V45.409z"/>
		<path d="M52.272,42.23c0,1.683-1.02,2.618-1.241,2.618c-0.051,0-0.085-0.034-0.085-0.068c0-0.068,0.17-0.204,0.255-0.34
			c0.459-0.697,0.595-1.428,0.51-1.666c-0.493-0.034-0.68-0.34-0.68-0.884c0-0.459,0.17-0.816,0.629-0.816
			C52.102,41.074,52.272,41.499,52.272,42.23z"/>
		<path d="M55.298,46.905h0.373c0.086,0,0.153-0.034,0.188-0.119l0.595-1.19c0.034-0.067,0.051-0.102,0.103-0.102
			c0.051,0,0.067,0.034,0.067,0.102V49.2c0,0.051-0.017,0.085-0.067,0.085c-0.068,0-0.086-0.052-0.119-0.119l-0.578-1.241
			c-0.034-0.085-0.102-0.119-0.188-0.119h-0.373v5.168h0.969c0.221,0,0.391-0.103,0.459-0.307l0.918-3.264
			c0.017-0.067,0.067-0.102,0.119-0.102c0.051,0,0.084,0.051,0.084,0.102v4.267c0,0.085-0.051,0.153-0.136,0.153h-4.402
			c-0.068,0-0.102-0.051-0.102-0.102c0-0.052,0.085-0.085,0.119-0.153l0.51-0.493c0.119-0.119,0.153-0.271,0.153-0.476V42.299
			c0-0.204-0.034-0.357-0.153-0.477l-0.51-0.493c-0.034-0.051-0.119-0.102-0.119-0.152s0.034-0.103,0.102-0.103h4.402
			c0.067,0,0.136,0.068,0.136,0.153v4.232c0,0.068-0.033,0.103-0.084,0.103c-0.068,0-0.119-0.052-0.137-0.119l-0.918-3.196
			c-0.068-0.221-0.221-0.322-0.441-0.322h-0.969V46.905z"/>
		<path d="M62.556,45.478c0,0.051-0.033,0.085-0.102,0.085c-0.051,0-0.086-0.052-0.102-0.119c-0.272-1.377-1.088-3.519-1.871-3.519
			c-0.424,0-0.459,0.356-0.459,0.799c0,0.833,0.222,1.666,1.479,4.334c1.19,2.516,1.325,3.077,1.325,4.42
			c0,1.802-0.934,2.346-1.563,2.346c-0.459,0-0.748-0.187-0.953-0.323c-0.187-0.119-0.289-0.17-0.34-0.17
			c-0.067,0-0.203,0.119-0.543,0.374c-0.068,0.051-0.137,0.119-0.205,0.119c-0.067,0-0.084-0.034-0.084-0.085v-4.283
			c0-0.052,0.017-0.119,0.084-0.119c0.052,0,0.086,0.067,0.103,0.119c0.306,1.359,0.833,3.519,1.836,3.519
			c0.323,0,0.493-0.357,0.493-0.884c0-1.14-0.51-2.38-1.479-4.42c-0.918-1.938-1.258-3.229-1.258-4.471
			c0-1.614,0.696-2.125,1.563-2.125c0.324,0,0.697,0.188,0.953,0.392c0.084,0.051,0.187,0.102,0.254,0.102
			c0.068,0,0.238-0.119,0.392-0.271c0.153-0.137,0.255-0.222,0.356-0.222c0.086,0,0.119,0.085,0.119,0.188V45.478z"/>
		<path d="M65.617,41.891h-0.629c-0.102,0-0.152,0.085-0.187,0.187l-0.884,3.383c-0.018,0.068-0.068,0.103-0.137,0.103
			c-0.067,0-0.084-0.034-0.084-0.119v-4.301c0-0.034,0.033-0.068,0.084-0.068h4.98c0.051,0,0.086,0.034,0.086,0.068v4.301
			c0,0.085-0.018,0.119-0.086,0.119c-0.067,0-0.119-0.034-0.136-0.103l-0.884-3.383c-0.033-0.102-0.085-0.187-0.188-0.187h-0.629
			V52.6c0,0.204,0.018,0.356,0.137,0.476l0.51,0.493c0.051,0.051,0.119,0.102,0.119,0.153c0,0.051-0.018,0.102-0.102,0.102h-2.635
			c-0.086,0-0.103-0.051-0.103-0.102c0-0.052,0.067-0.103,0.119-0.153l0.51-0.493c0.119-0.119,0.136-0.271,0.136-0.476V41.891z"/>
		<path d="M73.318,41.329c-0.051-0.051-0.119-0.102-0.119-0.152s0.018-0.103,0.102-0.103h2.652c0.068,0,0.102,0.052,0.102,0.103
			s-0.067,0.102-0.119,0.152l-0.51,0.493c-0.119,0.119-0.152,0.272-0.152,0.477v8.736c0,2.482-0.936,2.788-1.87,2.788
			c-1.479,0-1.802-1.904-1.802-3.535c0-0.137,0.034-0.204,0.137-0.204c0.084,0,0.152,0.067,0.17,0.17
			c0.271,2.022,0.799,2.72,1.274,2.72c0.458,0,0.782-0.374,0.782-1.225v-9.45c0-0.204-0.018-0.357-0.137-0.477L73.318,41.329z"/>
		<path d="M81.529,47.109c0,3.212-0.222,6.714-2.278,6.714c-2.04,0-2.261-3.502-2.261-6.714c0-2.448,0.221-6.035,2.261-6.035
			C81.307,41.074,81.529,44.661,81.529,47.109z M78.383,47.126c0,4.42,0.374,5.848,0.867,5.848c0.51,0,0.884-1.428,0.884-5.848
			c0-3.773-0.374-5.201-0.884-5.201C78.757,41.925,78.383,43.353,78.383,47.126z"/>
		<path d="M83.246,42.299c0-0.204-0.033-0.357-0.152-0.477l-0.511-0.493c-0.034-0.051-0.118-0.102-0.118-0.152
			s0.033-0.103,0.102-0.103h2.668c0.068,0,0.103,0.052,0.103,0.103s-0.085,0.102-0.119,0.152l-0.51,0.493
			c-0.119,0.119-0.153,0.272-0.153,0.477v10.675h0.68c0.205,0,0.375-0.052,0.442-0.255l1.054-3.298
			c0.034-0.068,0.034-0.119,0.103-0.119c0.051,0,0.085,0.051,0.085,0.119v4.164c0,0.153-0.051,0.238-0.188,0.238h-4.164
			c-0.068,0-0.102-0.051-0.102-0.102c0-0.052,0.084-0.085,0.118-0.153l0.511-0.493c0.119-0.119,0.152-0.271,0.152-0.476V42.299z"/>
		<path d="M88.566,42.299c0-0.204-0.033-0.357-0.152-0.477l-0.51-0.493c-0.034-0.051-0.119-0.102-0.119-0.152
			s0.033-0.103,0.102-0.103h2.669c0.067,0,0.103,0.052,0.103,0.103s-0.086,0.102-0.119,0.152l-0.51,0.493
			c-0.119,0.119-0.153,0.272-0.153,0.477V52.6c0,0.204,0.034,0.356,0.153,0.476l0.51,0.493c0.033,0.051,0.119,0.102,0.119,0.153
			c0,0.051-0.035,0.102-0.103,0.102h-2.669c-0.068,0-0.102-0.051-0.102-0.102c0-0.052,0.085-0.103,0.119-0.153l0.51-0.493
			c0.119-0.119,0.152-0.271,0.152-0.476V42.299z"/>
		<path d="M93.412,46.905h0.373c0.086,0,0.153-0.034,0.188-0.119l0.595-1.19c0.034-0.067,0.051-0.102,0.103-0.102
			c0.051,0,0.067,0.034,0.067,0.102V49.2c0,0.051-0.017,0.085-0.067,0.085c-0.068,0-0.086-0.052-0.119-0.119l-0.578-1.241
			c-0.034-0.085-0.102-0.119-0.188-0.119h-0.373v5.168h0.969c0.221,0,0.391-0.103,0.459-0.307l0.918-3.264
			c0.017-0.067,0.067-0.102,0.119-0.102c0.051,0,0.084,0.051,0.084,0.102v4.267c0,0.085-0.051,0.153-0.136,0.153h-4.402
			c-0.068,0-0.103-0.051-0.103-0.102c0-0.052,0.086-0.085,0.119-0.153l0.51-0.493c0.119-0.119,0.153-0.271,0.153-0.476V42.299
			c0-0.204-0.034-0.357-0.153-0.477l-0.51-0.493c-0.033-0.051-0.119-0.102-0.119-0.152s0.034-0.103,0.103-0.103h4.402
			c0.067,0,0.136,0.068,0.136,0.153v4.232c0,0.068-0.033,0.103-0.084,0.103c-0.068,0-0.119-0.052-0.137-0.119l-0.918-3.196
			c-0.068-0.221-0.221-0.322-0.441-0.322h-0.969V46.905z"/>
	</g>
	<g>
		<path fill="#E6205B" d="M51.305,73.032c0-4.859,0-9.641,0-14.482c1.051-0.171,2.086-0.339,3.182-0.517c0,1.694,0,3.309,0,4.964
			c0.389,0.053,0.701-0.112,1.023-0.162c0.898-0.14,1.796-0.171,2.691-0.023c1.477,0.244,2.207,0.952,2.38,2.434
			c0.197,1.693,0.21,3.401-0.006,5.091c-0.206,1.609-1.136,2.534-2.722,2.87C55.675,73.668,53.518,73.369,51.305,73.032z
			 M54.51,70.814c0.598,0,1.118,0.029,1.632-0.007c0.776-0.055,1.269-0.507,1.294-1.233c0.036-1.056,0.023-2.115,0.005-3.172
			c-0.009-0.522-0.308-0.876-0.816-0.966c-0.745-0.132-1.465-0.036-2.116,0.41C54.51,67.489,54.51,69.118,54.51,70.814z"/>
		<path fill="#E6205B" d="M88.6,73.287c-0.931-1.538-1.869-3.087-2.808-4.636c-0.045,0.01-0.091,0.021-0.136,0.031
			c0,1.517,0,3.034,0,4.597c-1.107,0-2.133,0-3.198,0c0-4.9,0-9.779,0-14.729c1.025-0.169,2.057-0.34,3.156-0.521
			c0,3.135,0,6.188,0,9.241c0.047,0.019,0.095,0.039,0.142,0.058c0.949-1.485,1.897-2.97,2.843-4.45c1.145,0,2.255,0,3.468,0
			c-1.093,1.725-2.137,3.373-3.207,5.063c1.053,1.757,2.106,3.514,3.205,5.347C90.868,73.287,89.778,73.287,88.6,73.287z"/>
		<path fill="#E6205B" d="M71.035,68.012c0,0.56,0.021,1.121-0.004,1.68c-0.083,1.877-1.145,3.142-2.98,3.544
			c-1.21,0.265-2.426,0.256-3.625-0.064c-1.502-0.401-2.418-1.384-2.656-2.918c-0.225-1.449-0.219-2.917,0-4.364
			c0.231-1.531,1.144-2.519,2.654-2.918c1.303-0.345,2.615-0.347,3.913,0.004c1.595,0.431,2.578,1.649,2.677,3.297
			c0.035,0.578,0.006,1.159,0.006,1.739C71.025,68.012,71.03,68.012,71.035,68.012z M64.872,68.076c0.004,0,0.007,0,0.011,0
			c0,0.519-0.031,1.04,0.007,1.556c0.054,0.731,0.579,1.148,1.404,1.176c0.839,0.028,1.502-0.395,1.538-1.098
			c0.054-1.055,0.058-2.118-0.003-3.172c-0.048-0.832-0.597-1.183-1.578-1.15c-0.871,0.03-1.336,0.44-1.375,1.251
			C64.853,67.117,64.872,67.597,64.872,68.076z"/>
		<path fill="#E6205B" d="M72.078,67.924c-0.041-0.72-0.094-1.449,0.06-2.154c0.339-1.559,1.324-2.522,2.874-2.863
			c1.206-0.265,2.427-0.268,3.629,0.047c1.582,0.415,2.505,1.46,2.718,3.07c0.168,1.272,0.134,2.56,0.031,3.837
			c-0.154,1.902-1.309,3.101-3.194,3.424c-1.093,0.188-2.194,0.187-3.279-0.077c-1.662-0.405-2.679-1.577-2.83-3.304
			C72.03,69.249,72.078,68.585,72.078,67.924z M75.236,68.135c-0.001,0-0.002,0-0.003,0c0,0.44-0.009,0.881,0.002,1.321
			c0.021,0.872,0.529,1.335,1.466,1.35c0.934,0.015,1.498-0.456,1.52-1.314c0.023-0.92,0.022-1.842,0.006-2.763
			c-0.016-0.888-0.521-1.334-1.472-1.342c-0.966-0.008-1.478,0.424-1.515,1.307C75.219,67.173,75.236,67.654,75.236,68.135z"/>
		<path fill="#E6205B" d="M50.115,69.006c-1.984,0-3.915,0-5.834,0c-0.189,1.18,0.188,1.7,1.302,1.783
			c1.303,0.098,2.596-0.041,3.881-0.26c0.113-0.019,0.229-0.025,0.377-0.041c0,0.844,0,1.659,0,2.559
			c-2.204,0.374-4.416,0.797-6.597-0.082c-1.373-0.553-2.02-1.711-2.17-3.141c-0.117-1.116-0.091-2.24-0.029-3.359
			c0.118-2.142,1.145-3.299,3.272-3.643c1.091-0.176,2.193-0.168,3.27,0.159c1.322,0.401,2.156,1.257,2.427,2.625
			C50.233,66.714,50.085,67.83,50.115,69.006z M46.924,66.857c0.071-0.666,0.053-1.256-0.547-1.577
			c-0.555-0.297-1.17-0.316-1.698,0.072c-0.51,0.375-0.523,0.926-0.41,1.506C45.166,66.857,46.017,66.857,46.924,66.857z"/>
		<path fill="#E6205B" d="M27.615,67.452c0-0.273-0.001-0.41,0-0.547c0.009-1.045-0.292-1.361-1.351-1.373
			c-1.04-0.012-2.079-0.003-3.22-0.003c0.086-0.875,0.168-1.716,0.249-2.538c0.051-0.045,0.08-0.095,0.109-0.095
			c1.579-0.001,3.161-0.13,4.735,0.1c1.62,0.237,2.422,1.019,2.614,2.649c0.234,1.994,0.061,4,0.104,6
			c0.012,0.536,0.002,1.072,0.002,1.647c-0.908,0-1.761,0-2.622,0c-0.195-0.119-0.083-0.372-0.23-0.558
			c-0.547,0.133-1.049,0.436-1.618,0.547c-0.554,0.108-1.106,0.171-1.668,0.139c-1.129-0.065-2.036-0.534-2.469-1.609
			c-0.461-1.144-0.501-2.324,0.245-3.383c0.528-0.75,1.374-0.935,2.231-0.967C25.662,67.424,26.601,67.452,27.615,67.452z
			 M27.596,69.528c-0.587,0-1.106-0.028-1.62,0.008c-0.485,0.034-0.841,0.24-0.795,0.828c0.042,0.537,0.334,0.787,0.849,0.815
			c0.58,0.031,1.078-0.205,1.566-0.452C27.596,70.329,27.596,69.971,27.596,69.528z"/>
		<path fill="#E6205B" d="M22.154,60.361c-0.547,0.025-1.062,0.047-1.577,0.071c-0.534,0.025-0.805,0.296-0.799,0.839
			c0.005,0.515,0.001,1.03,0.001,1.607c0.823,0,1.593,0,2.413,0c-0.094,0.896-0.18,1.724-0.272,2.603c-0.696,0-1.368,0-2.118,0
			c0,2.621,0,5.19,0,7.802c-1.104,0-2.132,0-3.223,0c0-2.562,0-5.115,0-7.683c-0.556-0.164-1.082-0.012-1.619-0.12
			c0-0.862,0-1.711,0-2.618c0.528,0,1.021,0,1.6,0c0-0.587-0.005-1.119,0.001-1.652c0.023-2.251,0.822-3.19,3.041-3.437
			c0.827-0.092,1.672-0.015,2.552-0.015C22.154,58.632,22.154,59.478,22.154,60.361z"/>
		<path fill="#E6205B" d="M39.982,63.145c0,0.859,0,1.655,0,2.493c-0.464,0.04-0.883-0.108-1.308-0.163
			c-0.797-0.103-1.596-0.161-2.395-0.067c-0.751,0.088-1.082,0.427-1.104,1.174c-0.029,1-0.029,2.003,0.002,3.003
			c0.021,0.708,0.293,0.998,0.997,1.143c1.146,0.237,2.269-0.039,3.396-0.187c0.117-0.015,0.235-0.032,0.397-0.054
			c0,0.852,0,1.682,0,2.553c-1.547,0.35-3.1,0.588-4.682,0.278c-1.961-0.385-3.083-1.591-3.291-3.603
			c-0.111-1.074-0.113-2.165-0.001-3.24c0.222-2.148,1.432-3.383,3.622-3.675C37.074,62.606,38.528,62.751,39.982,63.145z"/>
	</g>
	<g>
		<path fill="#E6205B" d="M53.824,107.647C24.145,107.647,0,83.502,0,53.824S24.145,0,53.824,0s53.823,24.145,53.823,53.824
			S83.502,107.647,53.824,107.647z M53.824,2C25.248,2,2,25.248,2,53.824s23.248,51.824,51.824,51.824
			c28.575,0,51.823-23.248,51.823-51.824S82.399,2,53.824,2z"/>
	</g>
</g>
</svg>
