<?xml version="1.0" encoding="utf-8"?>
<!-- Generator: Adobe Illustrator 17.0.0, SVG Export Plug-In . SVG Version: 6.00 Build 0)  -->
<!DOCTYPE svg PUBLIC "-//W3C//DTD SVG 1.1//EN" "http://www.w3.org/Graphics/SVG/1.1/DTD/svg11.dtd">
<svg version="1.1" id="Layer_2" xmlns="http://www.w3.org/2000/svg" xmlns:xlink="http://www.w3.org/1999/xlink" x="0px" y="0px"
	 width="240.06px" height="126px" viewBox="0 0 240.06 126" enable-background="new 0 0 240.06 126" xml:space="preserve">
<g>
	<g>
		<g>
			<polygon points="126.399,23.442 126.161,21.385 126.399,19.328 126.637,21.385 			"/>
			<polygon points="128.456,21.385 126.399,21.623 124.343,21.385 126.399,21.147 			"/>
		</g>
		<g>
			<polygon points="115.247,30.066 114.993,27.878 115.247,25.69 115.5,27.878 			"/>
			<polygon points="117.435,27.878 115.247,28.132 113.059,27.878 115.247,27.625 			"/>
		</g>
		<g>
			<polygon points="99.3,21.782 99.072,19.813 99.3,17.844 99.528,19.813 			"/>
			<polygon points="101.27,19.813 99.3,20.041 97.331,19.813 99.3,19.585 			"/>
		</g>
		<g>
			<polygon points="99.811,28.203 98.258,26.972 97.027,25.418 98.58,26.65 			"/>
			<polygon points="99.811,25.418 98.58,26.972 97.027,28.203 98.258,26.65 			"/>
		</g>
		<g>
			<polygon points="106.899,27.441 106.697,25.69 106.899,23.94 107.102,25.69 			"/>
			<polygon points="108.65,25.69 106.899,25.893 105.149,25.69 106.899,25.488 			"/>
		</g>
		<g>
			<polygon points="124.703,26.032 123.488,24.756 122.596,23.237 123.811,24.513 			"/>
			<polygon points="125.047,23.581 123.771,24.796 122.251,25.688 123.527,24.473 			"/>
		</g>
		<g>
			<polygon points="121.907,21.552 120.692,20.276 119.8,18.757 121.015,20.033 			"/>
			<polygon points="122.251,19.101 120.975,20.316 119.456,21.208 120.732,19.993 			"/>
		</g>
		<g>
			<polygon points="111.893,29.529 110.678,28.253 109.787,26.734 111.002,28.01 			"/>
			<polygon points="112.238,27.078 110.962,28.293 109.442,29.185 110.718,27.97 			"/>
		</g>
		<g>
			<polygon points="91.853,25.51 90.82,24.425 90.062,23.133 91.095,24.218 			"/>
			<polygon points="92.146,23.426 91.061,24.459 89.769,25.217 90.854,24.184 			"/>
		</g>
		<g>
			<polygon points="81.234,24.61 81.063,23.133 81.234,21.656 81.405,23.133 			"/>
			<polygon points="82.711,23.133 81.234,23.304 79.757,23.133 81.234,22.962 			"/>
		</g>
		<g>
			<polygon points="86.991,21.852 86.099,20.915 85.444,19.799 86.336,20.736 			"/>
			<polygon points="87.243,20.052 86.307,20.944 85.191,21.599 86.128,20.707 			"/>
		</g>
		<g>
			<polygon points="115.247,22.878 114.355,21.941 113.7,20.825 114.592,21.762 			"/>
			<polygon points="115.5,21.078 114.563,21.97 113.448,22.625 114.384,21.733 			"/>
		</g>
		<g>
			<polygon points="90.96,18.685 90.48,18.356 90.088,17.926 90.568,18.255 			"/>
			<polygon points="90.903,17.869 90.574,18.35 90.145,18.742 90.473,18.262 			"/>
		</g>
		<g>
			<polygon points="93.725,26.676 93.324,26.255 93.029,25.753 93.431,26.174 			"/>
			<polygon points="93.839,25.867 93.417,26.268 92.915,26.562 93.337,26.161 			"/>
		</g>
		<g>
			<polygon points="102.079,23.595 101.678,23.174 101.383,22.672 101.785,23.093 			"/>
			<polygon points="102.193,22.785 101.772,23.187 101.27,23.481 101.691,23.08 			"/>
		</g>
		<g>
			<polygon points="111.188,19.115 110.786,18.694 110.492,18.192 110.893,18.613 			"/>
			<polygon points="111.302,18.306 110.88,18.707 110.378,19.002 110.8,18.6 			"/>
		</g>
		<g>
			<polygon points="103.6,30.528 103.199,30.107 102.904,29.605 103.306,30.026 			"/>
			<polygon points="103.714,29.718 103.292,30.12 102.79,30.414 103.212,30.013 			"/>
		</g>
		<g>
			<polygon points="118.244,24.402 117.843,23.98 117.548,23.478 117.95,23.9 			"/>
			<polygon points="118.358,23.592 117.937,23.993 117.435,24.288 117.856,23.887 			"/>
		</g>
		<g>
			<polygon points="117.99,20.465 117.416,20.37 116.879,20.146 117.453,20.241 			"/>
			<polygon points="117.594,19.75 117.499,20.324 117.275,20.861 117.37,20.287 			"/>
		</g>
		<g>
			<polygon points="110.934,24.099 110.36,24.004 109.822,23.781 110.397,23.876 			"/>
			<polygon points="110.537,23.384 110.442,23.958 110.219,24.496 110.314,23.922 			"/>
		</g>
		<g>
			<polygon points="105.705,21.415 105.131,21.32 104.593,21.096 105.167,21.191 			"/>
			<polygon points="105.308,20.7 105.213,21.274 104.99,21.811 105.085,21.237 			"/>
		</g>
		<g>
			<polygon points="95.582,21.021 95.008,20.926 94.47,20.702 95.045,20.797 			"/>
			<polygon points="95.186,20.306 95.09,20.88 94.867,21.417 94.962,20.843 			"/>
		</g>
		<g>
			<polygon points="84.55,25.376 85.124,25.281 85.662,25.058 85.087,25.153 			"/>
			<polygon points="84.946,24.661 85.041,25.235 85.265,25.773 85.17,25.198 			"/>
		</g>
		<g>
			<polygon points="81.063,26.836 80.489,26.741 79.951,26.517 80.525,26.612 			"/>
			<polygon points="80.666,26.12 80.571,26.695 80.348,27.232 80.443,26.658 			"/>
		</g>
		<g>
			<polygon points="76.538,26.979 76.136,26.557 75.842,26.055 76.243,26.477 			"/>
			<polygon points="76.651,26.169 76.23,26.57 75.728,26.865 76.149,26.463 			"/>
		</g>
	</g>
	<g>
		<path d="M79.21,41.766c0-0.444-0.074-0.777-0.333-1.036l-1.11-1.073c-0.074-0.111-0.259-0.222-0.259-0.333
			c0-0.111,0.074-0.222,0.222-0.222h4.625c3.848,0,5.846,2.368,5.846,6.846c0,4.255-1.295,5.698-2.738,6.586
			c1.443,0.74,2.813,2.294,2.813,6.401c0,5.365-1.702,7.919-4.736,7.919h-5.81c-0.148,0-0.222-0.111-0.222-0.223
			c0-0.11,0.185-0.185,0.259-0.333l1.11-1.072c0.259-0.26,0.333-0.593,0.333-1.036V41.766z M82.059,51.831h0.555
			c1.813,0,2.59-1.443,2.59-5.883c0-3.774-0.777-4.996-2.59-4.996h-0.555V51.831z M82.059,65.004h1.147
			c1.628,0,1.998-1.332,1.998-6.328c0-3.626-0.777-4.995-2.59-4.995h-0.555V65.004z"/>
		<path d="M91.753,41.766c0-0.444-0.074-0.777-0.333-1.036l-1.11-1.073c-0.074-0.111-0.259-0.222-0.259-0.333
			c0-0.111,0.074-0.222,0.222-0.222h5.81c0.148,0,0.222,0.111,0.222,0.222c0,0.111-0.185,0.222-0.259,0.333l-1.11,1.073
			c-0.259,0.259-0.333,0.592-0.333,1.036V64.19c0,0.443,0.074,0.776,0.333,1.036l1.11,1.072c0.074,0.111,0.259,0.223,0.259,0.333
			c0,0.111-0.074,0.223-0.222,0.223h-5.81c-0.148,0-0.222-0.111-0.222-0.223c0-0.11,0.185-0.222,0.259-0.333l1.11-1.072
			c0.259-0.26,0.333-0.593,0.333-1.036V41.766z"/>
		<path d="M100.781,39.657c-0.111-0.111-0.259-0.222-0.259-0.333c0-0.111,0.037-0.222,0.222-0.222h5.772
			c0.148,0,0.222,0.111,0.222,0.222c0,0.111-0.148,0.222-0.259,0.333l-1.11,1.073c-0.259,0.259-0.333,0.592-0.333,1.036v19.02
			c0,5.403-2.035,6.069-4.07,6.069c-3.219,0-3.922-4.145-3.922-7.697c0-0.296,0.074-0.444,0.296-0.444
			c0.185,0,0.333,0.148,0.37,0.37c0.592,4.403,1.739,5.92,2.775,5.92c0.999,0,1.702-0.813,1.702-2.664V41.766
			c0-0.444-0.037-0.777-0.296-1.036L100.781,39.657z"/>
		<path d="M118.393,52.238c0,6.994-0.481,14.617-4.958,14.617c-4.44,0-4.921-7.623-4.921-14.617c0-5.328,0.481-13.136,4.921-13.136
			C117.912,39.102,118.393,46.91,118.393,52.238z M111.547,52.275c0,9.621,0.814,12.729,1.887,12.729
			c1.11,0,1.924-3.108,1.924-12.729c0-8.214-0.814-11.323-1.924-11.323C112.361,40.952,111.547,44.061,111.547,52.275z"/>
		<path d="M121.501,41.766c0-0.444-0.074-0.814-0.297-1.036l-1.147-1.073c-0.111-0.111-0.185-0.222-0.185-0.333
			c0-0.111,0.074-0.222,0.222-0.222h5.662c0.147,0,0.222,0.111,0.222,0.222c0,0.111-0.074,0.222-0.185,0.333l-1.147,1.073
			c-0.185,0.222-0.296,0.592-0.296,1.036v20.129c0,1.628,0.148,3.108,1.888,3.108c1.368,0,1.738-1.48,1.738-3.108V41.766
			c0-0.444-0.073-0.814-0.296-1.036l-1.146-1.073c-0.111-0.111-0.186-0.222-0.186-0.333c0-0.111,0.074-0.222,0.223-0.222h5.069
			c0.147,0,0.222,0.111,0.222,0.222c0,0.111-0.074,0.222-0.186,0.333l-1.146,1.073c-0.186,0.222-0.296,0.592-0.296,1.036v21.092
			c0,2.294-1.776,3.997-4.293,3.997c-2.923,0-4.439-1.702-4.439-3.997V41.766z"/>
		<path d="M134.413,41.766c-0.074-0.296-0.26-0.629-0.444-0.851l-1.222-1.258c-0.11-0.148-0.222-0.259-0.222-0.407
			c0-0.111,0.111-0.148,0.296-0.148h5.847c0.148,0,0.259,0.037,0.259,0.148c0,0.148-0.074,0.259-0.185,0.37l-1.147,0.999
			c-0.296,0.259-0.48,0.555-0.407,0.851l1.851,6.919h0.074l2.072-6.919c0.073-0.296-0.111-0.592-0.444-0.851l-1.222-0.999
			c-0.147-0.111-0.222-0.222-0.222-0.37c0-0.111,0.186-0.148,0.333-0.148h5.365c0.148,0,0.296,0.037,0.296,0.148
			c0,0.148-0.11,0.296-0.222,0.407l-1.258,1.258c-0.186,0.185-0.333,0.555-0.407,0.851l-3.22,10.768l3.034,11.249
			c0.111,0.408,0.334,0.778,0.519,1l1.258,1.369c0.186,0.185,0.37,0.407,0.37,0.555c0,0.111-0.147,0.148-0.296,0.148h-5.92
			c-0.148,0-0.26-0.074-0.26-0.186c0-0.147,0.148-0.333,0.333-0.518l1.147-1.222c0.147-0.185,0.185-0.48,0.111-0.739l-1.776-6.624
			h-0.074l-1.776,6.513c-0.11,0.37-0.073,0.666,0.111,0.851l1.221,1.222c0.186,0.185,0.333,0.37,0.333,0.518
			c0,0.111-0.11,0.186-0.259,0.186h-5.514c-0.185,0-0.296-0.037-0.296-0.148c0-0.147,0.148-0.37,0.333-0.592l1.222-1.258
			c0.222-0.26,0.48-0.666,0.592-1.074l2.997-10.324L134.413,41.766z"/>
		<path d="M159.351,48.686c0,0.111-0.074,0.185-0.222,0.185c-0.111,0-0.186-0.111-0.222-0.259c-0.593-2.997-2.368-7.66-4.07-7.66
			c-0.926,0-0.999,0.777-0.999,1.739c0,1.813,0.48,3.626,3.219,9.436c2.59,5.477,2.886,6.697,2.886,9.621
			c0,3.922-2.035,5.107-3.403,5.107c-1,0-1.629-0.407-2.072-0.703c-0.407-0.259-0.629-0.37-0.74-0.37
			c-0.148,0-0.444,0.259-1.185,0.814c-0.147,0.11-0.296,0.259-0.443,0.259c-0.148,0-0.186-0.074-0.186-0.186v-9.325
			c0-0.111,0.037-0.259,0.186-0.259c0.11,0,0.185,0.148,0.222,0.259c0.666,2.96,1.813,7.66,3.996,7.66
			c0.703,0,1.073-0.776,1.073-1.924c0-2.479-1.11-5.18-3.219-9.621c-1.999-4.218-2.738-7.03-2.738-9.731
			c0-3.515,1.517-4.625,3.404-4.625c0.702,0,1.517,0.407,2.071,0.851c0.186,0.111,0.407,0.222,0.556,0.222
			c0.147,0,0.518-0.259,0.851-0.592c0.333-0.296,0.556-0.481,0.777-0.481c0.185,0,0.259,0.185,0.259,0.407V48.686z"/>
		<path d="M162.902,41.766c0-0.444-0.074-0.814-0.296-1.036l-1.147-1.073c-0.11-0.111-0.185-0.222-0.185-0.333
			c0-0.111,0.074-0.222,0.222-0.222h5.661c0.148,0,0.223,0.111,0.223,0.222c0,0.111-0.074,0.222-0.186,0.333l-1.146,1.073
			c-0.186,0.222-0.296,0.592-0.296,1.036v20.129c0,1.628,0.147,3.108,1.887,3.108c1.369,0,1.739-1.48,1.739-3.108V41.766
			c0-0.444-0.074-0.814-0.296-1.036l-1.147-1.073c-0.111-0.111-0.185-0.222-0.185-0.333c0-0.111,0.073-0.222,0.222-0.222h5.069
			c0.148,0,0.222,0.111,0.222,0.222c0,0.111-0.073,0.222-0.185,0.333l-1.147,1.073c-0.185,0.222-0.296,0.592-0.296,1.036v21.092
			c0,2.294-1.776,3.997-4.292,3.997c-2.923,0-4.44-1.702-4.44-3.997V41.766z"/>
		<path d="M183.622,48.538c0,0.185-0.073,0.333-0.222,0.333c-0.185,0-0.259-0.185-0.296-0.407c-0.444-3.108-1.518-7.512-3.404-7.512
			c-1.628,0-1.924,3.515-1.924,11.323c0,11.101,0.813,12.729,2.479,12.729c2.035,0,2.813-6.809,2.813-7.142
			c0-0.185,0.111-0.296,0.296-0.296c0.186,0,0.259,0.111,0.259,0.333c0,5.477-0.813,8.955-4.07,8.955
			c-4.329,0-4.81-8.437-4.81-14.617c0-4.551,0.185-13.136,4.81-13.136c0.593,0,1.222,0.333,1.776,0.777
			c0.223,0.185,0.444,0.222,0.629,0.222c0.186,0,0.444-0.148,0.703-0.444c0.223-0.259,0.519-0.555,0.703-0.555
			c0.223,0,0.259,0.259,0.259,0.629V48.538z"/>
		<path d="M189.801,64.19c0,0.443,0.074,0.776,0.333,1.036l1.11,1.072c0.074,0.111,0.259,0.223,0.259,0.333
			c0,0.111-0.074,0.223-0.222,0.223h-5.81c-0.148,0-0.223-0.111-0.223-0.223c0-0.11,0.186-0.222,0.26-0.333l1.109-1.072
			c0.26-0.26,0.333-0.593,0.333-1.036V41.766c0-0.444-0.073-0.777-0.333-1.036l-1.109-1.073c-0.074-0.111-0.26-0.222-0.26-0.333
			c0-0.111,0.074-0.222,0.223-0.222h4.625c3.849,0,5.847,2.035,5.847,6.846c0,4.107-1.443,5.772-2.738,6.586
			c1.258,0.666,2.368,2.109,2.368,4.144v7.734c0,0.259,0.147,0.481,0.333,0.666l1.184,1.258c0.148,0.148,0.297,0.296,0.297,0.407
			s-0.186,0.111-0.37,0.111h-1.925c-1.702,0-2.368-1.11-2.368-2.368V56.53c0-1.628-0.999-2.849-2.294-2.849h-0.629V64.19z
			 M189.801,51.831h0.555c1.813,0,2.554-1.443,2.554-5.883c0-3.774-0.74-4.996-2.554-4.996h-0.555V51.831z"/>
		<path d="M202.677,51.794h0.814c0.185,0,0.333-0.074,0.406-0.259l1.296-2.59c0.073-0.148,0.11-0.222,0.222-0.222
			s0.147,0.074,0.147,0.222v7.845c0,0.111-0.036,0.185-0.147,0.185c-0.148,0-0.186-0.111-0.259-0.259l-1.259-2.701
			c-0.073-0.185-0.222-0.259-0.406-0.259h-0.814v11.249h2.109c0.48,0,0.851-0.222,0.999-0.666l1.998-7.104
			c0.037-0.148,0.147-0.222,0.259-0.222s0.186,0.111,0.186,0.222v9.288c0,0.185-0.111,0.333-0.297,0.333h-9.583
			c-0.148,0-0.223-0.111-0.223-0.223c0-0.11,0.186-0.185,0.26-0.333l1.109-1.072c0.26-0.26,0.333-0.593,0.333-1.036V41.766
			c0-0.444-0.073-0.777-0.333-1.036l-1.109-1.073c-0.074-0.111-0.26-0.222-0.26-0.333c0-0.111,0.074-0.222,0.223-0.222h9.583
			c0.148,0,0.297,0.148,0.297,0.333v9.214c0,0.148-0.074,0.222-0.186,0.222c-0.147,0-0.259-0.111-0.296-0.259l-1.998-6.957
			c-0.148-0.481-0.481-0.703-0.962-0.703h-2.109V51.794z M202.195,38.066l4.182-3.367c0.222-0.222,0.444-0.333,0.592-0.148
			l0.889,1.591c0.11,0.185-0.111,0.296-0.37,0.407l-5.069,1.887L202.195,38.066z"/>
		<path d="M218.217,48.686c0,0.111-0.074,0.185-0.223,0.185c-0.11,0-0.185-0.111-0.222-0.259c-0.592-2.997-2.368-7.66-4.07-7.66
			c-0.925,0-0.999,0.777-0.999,1.739c0,1.813,0.481,3.626,3.22,9.436c2.59,5.477,2.886,6.697,2.886,9.621
			c0,3.922-2.035,5.107-3.404,5.107c-0.999,0-1.628-0.407-2.072-0.703c-0.407-0.259-0.629-0.37-0.74-0.37
			c-0.147,0-0.443,0.259-1.184,0.814c-0.148,0.11-0.296,0.259-0.444,0.259c-0.147,0-0.185-0.074-0.185-0.186v-9.325
			c0-0.111,0.037-0.259,0.185-0.259c0.111,0,0.186,0.148,0.223,0.259c0.666,2.96,1.813,7.66,3.996,7.66
			c0.703,0,1.073-0.776,1.073-1.924c0-2.479-1.11-5.18-3.22-9.621c-1.998-4.218-2.738-7.03-2.738-9.731
			c0-3.515,1.518-4.625,3.404-4.625c0.703,0,1.518,0.407,2.072,0.851c0.185,0.111,0.407,0.222,0.555,0.222
			c0.148,0,0.519-0.259,0.852-0.592c0.333-0.296,0.555-0.481,0.776-0.481c0.186,0,0.26,0.185,0.26,0.407V48.686z"/>
		<path d="M78.747,74.188c0-0.348-0.058-0.609-0.261-0.813l-0.87-0.841c-0.058-0.087-0.203-0.174-0.203-0.261
			s0.058-0.175,0.174-0.175h4.554c0.116,0,0.174,0.088,0.174,0.175s-0.145,0.174-0.203,0.261l-0.871,0.841
			c-0.203,0.203-0.261,0.465-0.261,0.813v18.217h1.16c0.348,0,0.638-0.088,0.754-0.436l1.798-5.627
			c0.058-0.116,0.058-0.203,0.174-0.203c0.087,0,0.145,0.087,0.145,0.203v7.106c0,0.261-0.087,0.406-0.319,0.406h-7.107
			c-0.116,0-0.174-0.087-0.174-0.174c0-0.088,0.145-0.146,0.203-0.262l0.87-0.841c0.203-0.203,0.261-0.464,0.261-0.813V74.188z"/>
		<path d="M91.42,89.01c-0.029-0.145-0.116-0.261-0.261-0.261h-2.146c-0.087,0-0.145,0.087-0.174,0.203l-0.435,3.19
			c-0.029,0.203,0.029,0.377,0.145,0.522l0.638,0.667c0.116,0.146,0.29,0.261,0.29,0.349c0,0.087-0.058,0.174-0.203,0.174h-3.336
			c-0.116,0-0.174-0.087-0.174-0.174c0-0.088,0.116-0.203,0.203-0.29l0.812-0.813c0.174-0.174,0.203-0.464,0.232-0.726l2.64-19.492
			c0.029-0.146,0.087-0.262,0.232-0.262h1.074c0.145,0,0.232,0.146,0.261,0.319l2.756,19.464c0.029,0.29,0.116,0.609,0.319,0.783
			l0.841,0.754c0.087,0.087,0.174,0.174,0.174,0.262c0,0.087-0.058,0.174-0.203,0.174h-4.177c-0.145,0-0.203-0.087-0.203-0.174
			c0-0.088,0.116-0.175,0.203-0.262l0.783-0.783c0.116-0.116,0.174-0.319,0.145-0.58L91.42,89.01z M91.014,87.212
			c0.087,0,0.145-0.087,0.116-0.203l-1.015-7.106h-0.058L89.1,87.038c-0.029,0.115,0.029,0.174,0.087,0.174H91.014z"/>
		<path d="M102.758,82.049h0.638c0.145,0,0.261-0.059,0.319-0.203l0.958-2.002c0.058-0.116,0.116-0.203,0.203-0.203
			c0.087,0,0.146,0.059,0.146,0.174v6.121c0,0.116-0.029,0.174-0.116,0.174s-0.116-0.087-0.174-0.203l-1.015-2.117
			c-0.058-0.146-0.174-0.203-0.319-0.203h-0.638v8.18c0,0.349,0.029,0.639,0.261,0.813l1.074,0.841
			c0.087,0.087,0.203,0.174,0.203,0.262c0,0.087-0.058,0.174-0.174,0.174h-4.757c-0.116,0-0.174-0.087-0.174-0.174
			c0-0.088,0.145-0.146,0.203-0.262l0.87-0.841c0.203-0.203,0.261-0.464,0.261-0.813V74.188c0-0.348-0.058-0.609-0.261-0.813
			l-0.87-0.841c-0.058-0.087-0.203-0.174-0.203-0.261s0.058-0.175,0.174-0.175h7.513c0.145,0,0.232,0.116,0.232,0.262v7.252
			c0,0.087-0.058,0.145-0.145,0.145s-0.203-0.087-0.232-0.203l-1.566-5.453c-0.116-0.377-0.377-0.551-0.754-0.551h-1.653V82.049z"/>
		<path d="M111.719,82.049h0.638c0.145,0,0.261-0.059,0.319-0.203l1.015-2.031c0.058-0.115,0.087-0.174,0.174-0.174
			s0.116,0.059,0.116,0.174v6.15c0,0.087-0.029,0.145-0.116,0.145c-0.116,0-0.145-0.087-0.203-0.203l-0.986-2.117
			c-0.058-0.146-0.174-0.203-0.319-0.203h-0.638v8.818h1.653c0.377,0,0.667-0.175,0.783-0.522l1.566-5.569
			c0.029-0.116,0.116-0.174,0.203-0.174s0.145,0.087,0.145,0.174v7.28c0,0.146-0.087,0.262-0.232,0.262h-7.513
			c-0.116,0-0.174-0.087-0.174-0.174c0-0.088,0.145-0.146,0.203-0.262l0.87-0.841c0.203-0.203,0.261-0.464,0.261-0.813V74.188
			c0-0.348-0.058-0.609-0.261-0.813l-0.87-0.841c-0.058-0.087-0.203-0.174-0.203-0.261s0.058-0.175,0.174-0.175h7.513
			c0.116,0,0.232,0.116,0.232,0.262v7.223c0,0.116-0.058,0.174-0.145,0.174c-0.116,0-0.203-0.087-0.232-0.203l-1.566-5.453
			c-0.116-0.377-0.377-0.551-0.754-0.551h-1.653V82.049z M111.342,71.287l3.277-2.64c0.174-0.174,0.348-0.262,0.464-0.116
			l0.696,1.247c0.087,0.146-0.087,0.232-0.29,0.319l-3.974,1.479L111.342,71.287z"/>
		<path d="M120.68,82.049h0.639c0.145,0,0.261-0.059,0.318-0.203l1.016-2.031c0.058-0.115,0.087-0.174,0.174-0.174
			s0.116,0.059,0.116,0.174v6.15c0,0.087-0.029,0.145-0.116,0.145c-0.116,0-0.145-0.087-0.203-0.203l-0.986-2.117
			c-0.058-0.146-0.174-0.203-0.318-0.203h-0.639v8.818h1.653c0.377,0,0.667-0.175,0.783-0.522l1.566-5.569
			c0.029-0.116,0.116-0.174,0.203-0.174s0.146,0.087,0.146,0.174v7.28c0,0.146-0.087,0.262-0.232,0.262h-7.513
			c-0.116,0-0.174-0.087-0.174-0.174c0-0.088,0.145-0.146,0.203-0.262l0.87-0.841c0.203-0.203,0.261-0.464,0.261-0.813V74.188
			c0-0.348-0.058-0.609-0.261-0.813l-0.87-0.841c-0.058-0.087-0.203-0.174-0.203-0.261s0.058-0.175,0.174-0.175h7.513
			c0.116,0,0.232,0.116,0.232,0.262v7.223c0,0.116-0.059,0.174-0.146,0.174c-0.116,0-0.203-0.087-0.231-0.203l-1.566-5.453
			c-0.116-0.377-0.378-0.551-0.755-0.551h-1.653V82.049z"/>
		<path d="M135.325,84.601c0-0.29-0.116-0.464-0.319-0.638l-0.813-0.696c-0.116-0.116-0.145-0.174-0.145-0.29
			s0.087-0.174,0.231-0.174h4.293c0.116,0,0.203,0.058,0.203,0.174s-0.058,0.174-0.145,0.29l-0.842,0.696
			c-0.203,0.146-0.29,0.348-0.29,0.638v9.108c0,0.087-0.058,0.146-0.145,0.146c-0.116,0-0.232-0.059-0.29-0.116l-0.87-0.783
			c-0.116-0.087-0.175-0.116-0.29-0.116c-0.087,0-0.175,0.029-0.29,0.116c-0.609,0.551-1.189,0.899-1.828,0.899
			c-3.626,0-3.771-6.614-3.771-11.458c0-3.567,0.145-10.298,3.713-10.298c0.957,0,1.537,0.436,1.827,0.668
			c0.116,0.087,0.319,0.174,0.436,0.174c0.145,0,0.435-0.203,0.725-0.464c0.262-0.232,0.436-0.378,0.58-0.378
			c0.146,0,0.203,0.203,0.203,0.493v6.962c0,0.116-0.058,0.203-0.145,0.203c-0.116,0-0.203-0.116-0.261-0.29
			c-0.609-2.176-1.856-5.917-3.133-5.917c-1.219,0-1.566,2.755-1.566,8.876c0,8.354,0.348,9.979,1.392,9.979
			c0.899,0,1.538-1.103,1.538-3.858V84.601z"/>
		<path d="M147.331,82.396c0,5.482-0.377,11.458-3.887,11.458c-3.48,0-3.858-5.976-3.858-11.458c0-4.177,0.378-10.298,3.858-10.298
			C146.954,72.099,147.331,78.22,147.331,82.396z M141.965,82.426c0,7.542,0.639,9.979,1.479,9.979c0.87,0,1.509-2.437,1.509-9.979
			c0-6.439-0.639-8.876-1.509-8.876C142.604,73.55,141.965,75.986,141.965,82.426z"/>
		<path d="M149.534,74.188c0-0.348-0.059-0.638-0.232-0.813l-0.899-0.841c-0.087-0.087-0.145-0.174-0.145-0.261
			s0.058-0.175,0.174-0.175h4.438c0.116,0,0.175,0.088,0.175,0.175s-0.059,0.174-0.146,0.261l-0.899,0.841
			c-0.145,0.175-0.231,0.465-0.231,0.813v15.78c0,1.275,0.115,2.437,1.479,2.437c1.073,0,1.363-1.161,1.363-2.437v-15.78
			c0-0.348-0.059-0.638-0.232-0.813l-0.899-0.841c-0.087-0.087-0.145-0.174-0.145-0.261s0.058-0.175,0.174-0.175h3.974
			c0.116,0,0.174,0.088,0.174,0.175s-0.058,0.174-0.145,0.261l-0.899,0.841c-0.145,0.175-0.232,0.465-0.232,0.813v16.534
			c0,1.798-1.392,3.133-3.364,3.133c-2.292,0-3.48-1.335-3.48-3.133V74.188z"/>
		<path d="M161.685,91.766c0,0.349,0.059,0.609,0.262,0.813l0.87,0.841c0.058,0.087,0.203,0.174,0.203,0.262
			c0,0.087-0.059,0.174-0.175,0.174h-4.554c-0.116,0-0.174-0.087-0.174-0.174c0-0.088,0.145-0.175,0.203-0.262l0.87-0.841
			c0.203-0.203,0.261-0.464,0.261-0.813V74.188c0-0.348-0.058-0.609-0.261-0.813l-0.87-0.841c-0.059-0.087-0.203-0.174-0.203-0.261
			s0.058-0.175,0.174-0.175h3.626c3.017,0,4.583,1.596,4.583,5.366c0,3.221-1.132,4.525-2.146,5.164
			c0.986,0.521,1.856,1.653,1.856,3.248v6.063c0,0.203,0.116,0.377,0.261,0.522l0.929,0.986c0.116,0.116,0.231,0.232,0.231,0.319
			s-0.145,0.087-0.29,0.087h-1.508c-1.335,0-1.856-0.87-1.856-1.856v-6.236c0-1.276-0.783-2.234-1.799-2.234h-0.493V91.766z
			 M161.685,82.077h0.436c1.421,0,2.001-1.131,2.001-4.612c0-2.958-0.58-3.915-2.001-3.915h-0.436V82.077z"/>
		<path d="M171.689,72.099c0.262,0,0.377,0.203,0.406,0.493l1.914,12.561h0.059l1.77-12.561c0.028-0.29,0.116-0.493,0.318-0.493
			h3.626c0.116,0,0.175,0.088,0.175,0.146c0,0.116-0.116,0.203-0.203,0.29l-0.726,0.841c-0.174,0.232-0.232,0.465-0.232,0.813
			v17.578c0,0.349,0.059,0.58,0.232,0.813l0.726,0.841c0.087,0.087,0.203,0.174,0.203,0.29c0,0.059-0.059,0.146-0.175,0.146h-4.061
			c-0.146,0-0.174-0.087-0.174-0.146c0-0.116,0.116-0.203,0.203-0.318l0.608-0.783c0.175-0.232,0.203-0.493,0.203-0.842V77.727
			h-0.058L174.3,93.622c-0.028,0.146-0.087,0.232-0.231,0.232h-0.639c-0.087,0-0.115-0.116-0.145-0.262l-2.35-15.866h-0.058v14.039
			c0,0.349,0.028,0.609,0.202,0.842l0.609,0.783c0.087,0.115,0.203,0.202,0.203,0.318c0,0.059-0.058,0.146-0.174,0.146h-3.568
			c-0.115,0-0.174-0.087-0.174-0.146c0-0.116,0.146-0.203,0.203-0.29l0.726-0.841c0.174-0.232,0.261-0.464,0.261-0.813V74.188
			c0-0.348-0.087-0.58-0.261-0.813l-0.726-0.841c-0.058-0.087-0.203-0.174-0.203-0.29c0-0.058,0.059-0.146,0.174-0.146H171.689z"/>
		<path d="M186.016,89.01c-0.028-0.145-0.116-0.261-0.261-0.261h-2.146c-0.087,0-0.146,0.087-0.174,0.203l-0.436,3.19
			c-0.029,0.203,0.029,0.377,0.146,0.522l0.638,0.667c0.116,0.146,0.29,0.261,0.29,0.349c0,0.087-0.058,0.174-0.203,0.174h-3.336
			c-0.115,0-0.174-0.087-0.174-0.174c0-0.088,0.116-0.203,0.203-0.29l0.813-0.813c0.174-0.174,0.203-0.464,0.231-0.726l2.64-19.492
			c0.029-0.146,0.087-0.262,0.232-0.262h1.073c0.146,0,0.232,0.146,0.261,0.319l2.756,19.464c0.029,0.29,0.116,0.609,0.319,0.783
			l0.841,0.754c0.087,0.087,0.174,0.174,0.174,0.262c0,0.087-0.058,0.174-0.202,0.174h-4.178c-0.145,0-0.203-0.087-0.203-0.174
			c0-0.088,0.116-0.175,0.203-0.262l0.783-0.783c0.116-0.116,0.175-0.319,0.146-0.58L186.016,89.01z M185.609,87.212
			c0.088,0,0.146-0.087,0.116-0.203l-1.015-7.106h-0.059l-0.957,7.136c-0.029,0.115,0.029,0.174,0.087,0.174H185.609z"/>
		<path d="M191.496,74.188c0-0.348-0.088-0.58-0.262-0.813l-0.725-0.841c-0.059-0.087-0.203-0.174-0.203-0.29
			c0-0.058,0.058-0.146,0.174-0.146h3.48c0.203,0,0.29,0.203,0.349,0.493l2.668,12.474h0.059V74.188c0-0.348-0.059-0.58-0.262-0.783
			l-0.812-0.87c-0.059-0.087-0.203-0.174-0.203-0.29c0-0.058,0.058-0.146,0.174-0.146h3.829c0.116,0,0.174,0.088,0.174,0.146
			c0,0.116-0.116,0.203-0.203,0.29l-0.725,0.841c-0.175,0.232-0.262,0.465-0.262,0.813v19.348c0,0.203-0.087,0.319-0.29,0.319
			h-1.218c-0.262,0-0.493-0.29-0.58-0.726l-3.395-15.809h-0.058v14.445c0,0.349,0.087,0.58,0.29,0.783l0.783,0.87
			c0.087,0.087,0.203,0.174,0.203,0.29c0,0.059-0.058,0.146-0.174,0.146h-3.829c-0.116,0-0.174-0.087-0.174-0.146
			c0-0.116,0.145-0.203,0.203-0.29l0.725-0.841c0.174-0.232,0.262-0.464,0.262-0.813V74.188z"/>
		<path d="M201.965,74.188c0-0.348-0.059-0.609-0.262-0.813l-0.87-0.841c-0.058-0.087-0.203-0.174-0.203-0.261
			s0.059-0.175,0.174-0.175h3.829c2.93,0,4.67,2.814,4.67,10.327c0,9.456-1.74,11.429-4.67,11.429h-3.829
			c-0.115,0-0.174-0.087-0.174-0.174c0-0.088,0.146-0.146,0.203-0.262l0.87-0.841c0.203-0.203,0.262-0.464,0.262-0.813V74.188z
			 M204.198,92.404h0.521c1.132,0,2.205-1.103,2.205-9.979c0-7.774-1.073-8.876-2.205-8.876h-0.521V92.404z"/>
		<path d="M214.028,82.049h0.639c0.145,0,0.261-0.059,0.318-0.203l1.016-2.031c0.058-0.115,0.087-0.174,0.174-0.174
			s0.116,0.059,0.116,0.174v6.15c0,0.087-0.029,0.145-0.116,0.145c-0.116,0-0.145-0.087-0.203-0.203l-0.986-2.117
			c-0.058-0.146-0.174-0.203-0.318-0.203h-0.639v8.818h1.653c0.377,0,0.667-0.175,0.783-0.522l1.566-5.569
			c0.029-0.116,0.116-0.174,0.203-0.174s0.146,0.087,0.146,0.174v7.28c0,0.146-0.087,0.262-0.232,0.262h-7.513
			c-0.116,0-0.174-0.087-0.174-0.174c0-0.088,0.145-0.146,0.203-0.262l0.87-0.841c0.203-0.203,0.261-0.464,0.261-0.813V74.188
			c0-0.348-0.058-0.609-0.261-0.813l-0.87-0.841c-0.059-0.087-0.203-0.174-0.203-0.261s0.058-0.175,0.174-0.175h7.513
			c0.116,0,0.232,0.116,0.232,0.262v7.223c0,0.116-0.059,0.174-0.146,0.174c-0.116,0-0.203-0.087-0.231-0.203l-1.566-5.453
			c-0.116-0.377-0.378-0.551-0.755-0.551h-1.653V82.049z"/>
	</g>
	<g>
		<path d="M86.059,29.285c-0.059-0.001-0.12,0.007-0.178,0.018c-0.159,0.031-0.312,0.079-0.462,0.133
			c-0.204,0.045-0.411,0.099-0.598,0.187c-0.602,0.284-1.154,0.67-1.785,0.896c0.063-0.077,0.125-0.155,0.191-0.23
			c0.158-0.178,0.296-0.37,0.392-0.588c0.141-0.317-0.009-0.543-0.353-0.558c-0.126-0.006-0.242,0.019-0.352,0.061
			c-0.293-0.027-0.607,0.306-0.899,0.425c-0.066,0.027-0.122,0.078-0.182,0.12c-0.46,0.324-0.942,0.539-1.448,0.662
			c-0.543,0.087-1.105,0.073-1.673,0.028c-0.883-0.07-1.727-0.347-2.594-0.502c-0.696-0.125-1.387-0.251-2.106-0.165
			c-0.988,0.118-1.739,0.596-2.314,1.388c-0.527,0.726-0.85,1.546-1.108,2.395c-0.097,0.32-0.22,0.825-0.36,1.301
			c-0.258,0.594-0.586,1.154-0.976,1.692c-2.195,3.028-5.142,5.522-6.537,9.229c-0.109-0.062-0.121-0.176-0.184-0.244
			c-2.788-3.061-5.63-6.072-8.93-8.595c-0.491-0.375-1.002-0.783-1.324-1.32c-0.257-0.43-0.345-0.926-0.469-1.404
			c-0.124-0.476-0.257-0.827-0.059-1.313c0.484-1.188,1.229-2.144,2.223-2.854c0.116-0.068,0.234-0.132,0.352-0.196
			c0.893-0.479,2.057-0.792,3.056-0.961c0.267-0.045,0.534-0.094,0.803-0.124c0.181-0.021,0.352,0.061,0.525,0.103
			c0.643,0.153,1.295,0.241,1.948,0.331c0.448,0.062,0.895,0.131,1.349,0.133c0.051,0,0.103-0.001,0.153-0.01
			c0.462-0.082,0.622-0.295,0.668-0.866c0.021-0.264,0.08-0.521,0.179-0.768c0.12-0.296,0.338-0.449,0.657-0.428
			c0.195,0.013,0.29-0.064,0.333-0.249c0.064-0.277,0.037-0.539-0.116-0.778c-0.085-0.132-0.067-0.175,0.091-0.212
			c0.317-0.075,0.602-0.216,0.801-0.492c0.055-0.076,0.064-0.128-0.005-0.214c-0.22-0.273-0.393-0.569-0.452-0.927
			c-0.021-0.13,0.012-0.169,0.117-0.2c0.258-0.076,0.505-0.182,0.74-0.314c0.646-0.363,0.733-0.854,0.268-1.433
			c-0.517-0.644-0.966-1.331-1.257-2.11c-0.049-0.13-0.084-0.266-0.133-0.396c-0.034-0.091-0.03-0.123,0.083-0.159
			c0.544-0.173,1.019-0.468,1.422-0.875c0.014-0.003,0.033-0.007,0.022-0.026c-0.003-0.006-0.026,0-0.04,0.001
			c-0.473,0.135-0.947,0.259-1.444,0.268c-0.133,0.002-0.178-0.017-0.181-0.168c-0.009-0.38,0.032-0.739,0.114-1.088
			c0.222-0.559,0.437-1.119,0.588-1.705c0.035-0.129,0.067-0.26,0.093-0.392c0,0-0.001,0-0.002,0
			c0.114-0.57,0.156-1.167,0.075-1.815c0.53,0.436,0.375,1.046,0.711,1.449c0.394-1.265,0.458-2.459-0.399-3.779
			c0.12,0.185,0.648,0.355,0.849,0.465c0.237,0.13,0.476,0.287,0.727,0.385c0.1-0.294-0.204-1.063-0.279-1.369
			c-0.105-0.428-0.233-0.85-0.389-1.263c-0.298-0.788-0.678-1.549-1.081-2.288c-0.804-1.479-1.849-2.779-3.125-3.879
			c-0.733-0.632-1.549-1.178-2.399-1.641c-2.277-1.241-4.736-1.835-7.308-1.995c-3.485-0.217-6.88,0.097-10.065,1.698
			c-1.762,0.885-3.601,1.551-5.583,1.746C33.85,3.759,31.5,3.061,29.297,1.729c-0.781-0.472-1.545-0.984-2.482-1.17
			c-1.919-0.381-3.907,0.535-4.567,2.165c-0.409,1.009-0.205,1.907,0.618,2.575c0.096-0.264,0.171-0.519,0.277-0.759
			c0.367-0.826,1.22-1.221,2.186-1.024c0.937,0.191,1.449,0.848,1.522,1.771c0.127,1.611-1.774,2.833-3.497,2.638
			c-0.941-0.107-1.609-0.82-2.397-1.267c-2.033-1.152-4.473-2.423-6.882-2.252c-0.69,0.049-1.428,0.204-2.078,0.444
			c-0.565,0.209-1.146,0.247-1.708-0.012c-0.626-0.289-0.742-0.87-0.735-1.561c-0.487,0.604-0.681,1.01-0.77,1.551
			c-0.201,1.221,0.383,1.995,1.622,2.087c0.629,0.047,1.261,0.044,1.891-0.08c0.954-0.187,1.901-0.088,2.792,0.281
			c0.641,0.266,1.124,0.69,1.252,1.472c0.231,1.411-1.647,2.197-2.731,1.788c-1.282-0.483-2.723-1.37-4.137-1.007
			c-1.32,0.339-2.599,1.287-2.181,2.8c0.203,0.735,0.616,1.313,1.401,1.54c0.388,0.112,0.604,0.165,0.405-0.402
			c-0.306-0.873-0.04-1.331,0.69-1.4c0.925-0.087,1.919,0.478,2.543,1.111c1.044,1.057,1.173,2.814,1.905,4.084
			c1.37,2.376,4.174,4.132,7.193,2.462c1.789-0.99,3.84-1.196,5.885-0.791c0.594,0.118,1.204,0.298,1.616,0.771
			c0.651,0.749,0.728,1.896,1.274,2.737c1.001,1.543,2.522,2.115,4.289,1.64c0.977-0.262,1.727-0.963,2.679-1.28
			c0.991-0.33,2.245-0.594,3.24-0.156c0.712,0.314,1.189,0.929,1.641,1.541c0.52,0.703,1.082,1.295,1.777,1.83
			c1.056,0.814,2.234,1.218,3.607,1.028c0.665-0.092,1.264-0.405,2.063-0.518c-0.957,1.294-1.835,2.481-2.714,3.668
			c-0.075,0.101-0.174,0.14-0.308,0.156c-1.011,0.119-1.011,0.119-1.514,0.187c-1.302,0.175-2.565,0.487-3.669,1.25
			c-3.56,2.461-6.157,5.745-7.702,9.738c-1.991,5.147-5.362,8.973-10.087,11.735c-4.517,2.641-6.751,6.709-6.999,11.875
			c-0.226,4.707,1.238,9.032,3.162,13.24c0.22,0.482,0.382,0.204,0.567,0.037c0.723-0.652,1.439-1.311,2.155-1.971
			c0.638-0.588,0.626-0.585,0.915,0.208c0.374,1.024,0.74,2.054,1.378,2.955c0.144,0.204,0.261,0.276,0.37,0.259
			c0.126-0.019,0.243-0.156,0.382-0.343c0.344-0.46,0.537-0.217,0.763,0.223c1.634,3.169,3.159,6.402,5.288,9.29
			c0.178,0.242,0.067,0.346-0.136,0.432c-1.704,0.719-2.825,2.098-3.939,3.483c-0.44,0.548-0.775,1.225-1.314,1.641
			c-1.38,1.068-2.84,2.039-4.417,2.802c-1.507,0.728-2.951,1.06-4.601,0.075c-1.727-1.031-3.197-0.476-4.267,1.255
			c-0.343,0.555-0.657,1.135-0.923,1.73c-0.415,0.926-0.959,1.634-2.035,1.879c-0.678,0.154-1.295,0.538-1.866,0.959
			c-1.105,0.815-1.019,2.312-1.95,3.296c-0.19,0.201-0.323,0.497-0.384,0.771c-0.103,0.464,0.055,0.912,0.488,1.114
			c0.402,0.187,0.586-0.214,0.78-0.485c0.882-1.228,2.03-1.94,3.576-2.1c1.954-0.203,3.761-0.866,5.06-2.427
			c0.876-1.052,1.98-1.697,3.213-2.179c1.3-0.508,2.62-0.955,4.068-1.257c-0.095,0.226-0.14,0.365-0.208,0.49
			c-1.267,2.323-2.525,4.65-3.809,6.963c-0.789,1.422-1.602,2.832-2.659,4.084c-0.345,0.409-0.673,0.541-1.252,0.402
			c-2.69-0.648-3.948,0.403-3.831,3.11c0.013,0.291-0.011,0.584-0.008,0.876c0.013,1.253-0.458,2.338-1.261,3.252
			c-0.525,0.598-0.735,1.221-0.661,1.995c0.098,1.024,0.073,2.012-0.486,2.962c-0.357,0.607-0.198,1.262,0.347,1.787
			c0.363,0.349,0.577,0.263,0.734-0.17c0.62-1.715,1.561-3.23,2.914-4.455c0.851-0.771,1.43-1.684,1.852-2.745
			c0.944-2.376,2.349-4.457,4.157-6.27c4.228-4.241,8.534-8.406,12.629-12.778c0.324-0.345,0.676-0.523,1.138-0.548
			c1.919-0.104,3.811-0.392,5.697-0.763c3.205-0.631,6.197-1.716,8.756-3.828c0.511-0.422,0.7-0.848,0.569-1.512
			c-0.405-2.056-0.972-3.975-1.665-5.936c-1.18-3.342-2.583-6.491-3.984-9.741c-1.568-3.638-3.261-7.448-5.294-10.869
			c-0.754-1.269-0.904-2.675-0.709-4.15c0.234-1.78,0.66-3.533,0.727-5.337c0.032-0.862,0.124-0.911,0.977-0.688
			c1.779,0.465,3.538,0.999,5.246,1.685c0.446,0.179,0.942,0.317,1.264,0.699c0.91,1.078,2.046,1.459,3.439,1.318
			c1.389-0.14,2.765-0.056,4.034,0.654c0.357,0.2,0.758,0.32,1.172,0.37c0.177,0.022,0.353,0.02,0.455-0.148
			c0.112-0.185-0.03-0.317-0.137-0.448c-0.436-0.533-1.09-0.913-1.703-1.21c-0.229-0.111-0.491-0.152-0.582-0.424
			c0.419-0.095,0.794-0.158,1.155-0.267c0.614-0.185,1.14-0.099,1.706,0.246c0.701,0.427,1.48,0.739,2.336,0.711
			c0.425-0.014,1.015-0.123,1.127-0.406c0.129-0.326-0.432-0.558-0.736-0.788c-0.174-0.132-0.369-0.238-0.531-0.382
			c-0.35-0.312-0.869-0.436-1.09-0.968c0.243-0.031,1.116,0.02,1.118-0.326c0.002-0.292-0.289-0.354-0.539-0.376
			c-0.469-0.042-0.932-0.165-1.295-0.44c-0.548-0.416-1.141-0.364-1.74-0.296c-0.382,0.043-0.755,0.17-1.133,0.251
			c-1.889,0.404-3.788,0.679-5.693,0.139c-1.628-0.462-3.146-1.257-4.547-2.198c-0.424-0.285-0.866-0.542-1.29-0.827
			c-0.34-0.229-0.697-0.569-0.36-0.971c1.94-2.307,4.383-3.68,7.388-4.11c2.108-0.302,4.098-0.913,5.223-2.982
			c0.173-0.318,0.317-0.167,0.502-0.01c1.185,1.009,2.352,2.041,3.572,3.006c2.171,1.718,4.273,3.531,6.676,4.935
			c1.022,0.597,1.51,0.527,2.301-0.321c0.667-0.716,1.206-1.527,1.693-2.369c2.303-3.988,4.218-8.162,6.009-12.394
			c0.284-0.638,0.728-1.541,1.056-2.143c0.567-1.039,1.373-1.719,2.575-1.921c0.854-0.144,1.711-0.168,2.57-0.209
			c0.935-0.044,1.87,0.116,2.807-0.04c0.836-0.139,1.566-0.49,2.224-1.002c0.746-0.582,1.404-1.261,2.068-1.932
			c0.142-0.144,0.292-0.281,0.401-0.454C86.393,29.421,86.323,29.291,86.059,29.285z M39.087,90.643
			c0.025-0.134,0.111-0.272,0.206-0.374c0.109-0.117,0.225-0.01,0.315,0.063c0.275,0.222,0.544,0.451,0.816,0.677l-0.083,0.14
			c-0.322-0.095-0.642-0.198-0.967-0.28C39.235,90.833,39.049,90.851,39.087,90.643z"/>
		<g opacity="0.7">
			<path fill="#BCBDBF" d="M46.556,30.149c0,0-7.755,4.965-20.82,9.675c0,0-6,2.195-11.38,2.337c0,0-5.38,0.143-10.715-4.031
				c0,0-4.414-3.3-3.522-6.08c0,0,0.287-2.056,6.798-2.319c0,0,9.103-0.502,21.321-0.44C40.455,29.355,46.556,30.149,46.556,30.149z
				"/>
			<path fill="#DDDEE0" d="M45.455,30.337c0,0-6.654,4.778-19.719,9.488c0,0-6,2.195-11.38,2.337c0,0-5.38,0.143-10.715-4.031
				c0,0-4.414-3.3-3.522-6.08c0,0,0.284-1.717,6.794-1.98c0,0,9.101-0.332,21.319-0.27S45.455,30.337,45.455,30.337z"/>
			<g>
				<g>
					<path fill="#FEFFFF" d="M6.642,30.659c0,0,7.817,1.742,24.761,0.725c0,0,4.252-0.221,14.02-0.848c0,0-9.367,0.401-14.349,0.563
						S19.447,31.657,6.642,30.659z"/>
					<path fill="#FEFFFF" d="M15.381,37.092c0,0,8.733-0.87,17.919-3.031s11.442-3.481,11.442-3.481s-6.43,2.936-14.695,4.576
						C21.784,36.795,15.381,37.092,15.381,37.092z"/>
					<path fill="#FEFFFF" d="M25.296,37.496c0,0,8.356-2.037,19.444-6.635C44.74,30.861,36.607,35.357,25.296,37.496z"/>
					<path fill="#FEFFFF" d="M8.73,34.149c0,0,7.789,1.077,12.973-2.456l0.721-0.06C22.424,31.633,19.076,35.336,8.73,34.149z"/>
					<path fill="#FEFFFF" d="M26.002,33.452c0,0,1.905,0.918,6.658-2.137l-0.532-0.006C32.128,31.31,28.367,33.934,26.002,33.452z"
						/>
					<path fill="#FEFFFF" d="M30.94,34.704c-3.809,0.225-8.889-1.173-8.889-1.173c3.825,1.486,7.836,1.433,7.836,1.433L30.94,34.704
						z"/>
					<path fill="#FEFFFF" d="M24.257,35.92c-2.115-0.246-5.609-1.072-5.609-1.072s3.516,1.077,4.913,1.235L24.257,35.92z"/>
				</g>
			</g>
		</g>
		<g opacity="0.7">
			<path fill="#BCBDBF" d="M46.556,30.149c0,0-6.328,6.69-17.87,14.414c0,0-5.293,3.578-10.479,5.015c0,0-5.187,1.437-11.371-1.325
				c0,0-5.08-2.137-4.885-5.05c0,0-0.217-2.064,6.037-3.891c0,0,8.713-2.684,20.584-5.572
				C40.444,30.851,46.556,30.149,46.556,30.149z"/>
			<path fill="#DDDEE0" d="M45.533,30.597c0,0-5.304,6.242-16.846,13.966c0,0-5.293,3.578-10.479,5.015
				c0,0-5.187,1.437-11.371-1.325c0,0-5.08-2.137-4.885-5.05c0,0-0.139-1.734,6.115-3.561c0,0,8.752-2.519,20.623-5.407
				S45.533,30.597,45.533,30.597z"/>
			<g>
				<g>
					<path fill="#FEFFFF" d="M7.944,40.277c0,0,8.007-0.196,24.205-5.272c0,0,4.073-1.241,13.401-4.207c0,0-8.994,2.649-13.789,4.01
						S20.612,38.155,7.944,40.277z"/>
					<path fill="#FEFFFF" d="M17.978,44.41c0,0,8.265-2.952,16.658-7.266s10.264-6.14,10.264-6.14s-5.532,4.401-13.156,7.987
						S17.978,44.41,17.978,44.41z"/>
					<path fill="#FEFFFF" d="M27.697,42.41c0,0,7.618-3.994,17.268-11.132C44.965,31.278,38.158,37.604,27.697,42.41z"/>
					<path fill="#FEFFFF" d="M10.813,43.16c0,0,7.819-0.835,11.997-5.515l0.685-0.232C23.495,37.414,21.141,41.815,10.813,43.16z"/>
					<path fill="#FEFFFF" d="M27.407,38.315c0,0,2.07,0.431,5.945-3.681l-0.518,0.123C32.835,34.758,29.818,38.212,27.407,38.315z"
						/>
					<path fill="#FEFFFF" d="M32.501,38.339c-3.642,1.138-8.91,1.007-8.91,1.007c4.071,0.519,7.95-0.501,7.95-0.501L32.501,38.339z"
						/>
					<path fill="#FEFFFF" d="M26.309,41.131c-2.112,0.272-5.702,0.313-5.702,0.313s3.671,0.196,5.066,0.012L26.309,41.131z"/>
				</g>
			</g>
		</g>
	</g>
	<g>
		<path fill="#F00128" d="M235.201,14.047c0.478-2.341-1.673-4.401-3.995-3.848c-0.352,0.084-0.68,0.224-1.003,0.418
			c-0.011-0.052-0.016-0.08-0.022-0.109c-0.386-1.934-2.35-3.099-4.226-2.489c-1.286,0.418-1.979,1.371-2.289,2.643
			c-0.203,0.834-0.126,1.656,0.11,2.471c0.246,0.847,0.625,1.641,0.992,2.438c0.591,1.281,1.119,2.584,1.343,3.988
			c0.021,0.134,0.073,0.087,0.139,0.044c0.884-0.577,1.838-1.006,2.836-1.34c0.667-0.223,1.34-0.429,2.01-0.646
			c0.818-0.266,1.628-0.555,2.346-1.043C234.348,15.956,234.98,15.13,235.201,14.047z"/>
		<path fill="#F00128" d="M211.737,16.316c-1.433-1.913-4.401-1.673-5.53,0.431c-0.171,0.319-0.284,0.657-0.354,1.027
			c-0.046-0.027-0.071-0.041-0.096-0.056c-1.702-0.996-3.878-0.302-4.668,1.505c-0.541,1.239-0.29,2.39,0.455,3.466
			c0.488,0.706,1.154,1.195,1.92,1.559c0.797,0.379,1.641,0.623,2.482,0.878c1.351,0.409,2.675,0.88,3.873,1.646
			c0.115,0.073,0.113,0.003,0.125-0.075c0.156-1.044,0.468-2.042,0.882-3.01c0.276-0.647,0.57-1.287,0.852-1.931
			c0.345-0.788,0.666-1.585,0.779-2.447C212.597,18.221,212.399,17.2,211.737,16.316z"/>
		<path fill="#F00128" d="M172.383,19.155c-1.121-1.497-3.444-1.309-4.327,0.337c-0.134,0.25-0.222,0.514-0.277,0.804
			c-0.036-0.021-0.056-0.032-0.075-0.044c-1.332-0.779-3.034-0.236-3.652,1.178c-0.424,0.969-0.227,1.87,0.356,2.712
			c0.382,0.552,0.903,0.935,1.502,1.22c0.623,0.297,1.284,0.488,1.942,0.687c1.057,0.32,2.093,0.689,3.031,1.288
			c0.09,0.057,0.089,0.002,0.098-0.058c0.122-0.817,0.366-1.598,0.69-2.355c0.216-0.506,0.446-1.007,0.667-1.511
			c0.27-0.617,0.521-1.24,0.609-1.915C173.057,20.645,172.902,19.847,172.383,19.155z"/>
		<path fill="#F00128" d="M191.419,15.999c0.36-1.764-1.26-3.315-3.009-2.898c-0.265,0.063-0.512,0.169-0.756,0.314
			c-0.008-0.039-0.012-0.061-0.017-0.082c-0.291-1.457-1.77-2.334-3.183-1.875c-0.968,0.315-1.49,1.032-1.724,1.991
			c-0.153,0.628-0.095,1.247,0.083,1.861c0.185,0.638,0.47,1.236,0.747,1.837c0.445,0.965,0.843,1.946,1.011,3.004
			c0.016,0.101,0.055,0.065,0.104,0.033c0.666-0.435,1.384-0.758,2.136-1.01c0.503-0.168,1.01-0.323,1.514-0.487
			c0.616-0.2,1.226-0.418,1.767-0.786C190.777,17.436,191.253,16.814,191.419,15.999z"/>
		<path fill="#F00128" d="M152.86,15.143c-0.602-1.205-2.273-1.371-3.111-0.318c-0.127,0.16-0.224,0.336-0.3,0.534
			c-0.023-0.019-0.035-0.03-0.048-0.041c-0.844-0.724-2.121-0.558-2.741,0.365c-0.425,0.633-0.402,1.296-0.097,1.969
			c0.2,0.441,0.52,0.779,0.908,1.058c0.404,0.291,0.848,0.511,1.288,0.737c0.708,0.363,1.395,0.758,1.983,1.303
			c0.056,0.052,0.062,0.013,0.077-0.029c0.191-0.563,0.466-1.086,0.792-1.581c0.219-0.331,0.446-0.656,0.667-0.986
			c0.271-0.403,0.529-0.812,0.678-1.279C153.146,16.286,153.139,15.7,152.86,15.143z"/>
		<path fill="#F00128" d="M137.234,21.995c0.225-1.101-0.786-2.069-1.878-1.809c-0.165,0.039-0.32,0.105-0.472,0.196
			c-0.005-0.024-0.008-0.038-0.01-0.051c-0.181-0.909-1.105-1.457-1.986-1.17c-0.604,0.197-0.93,0.644-1.076,1.242
			c-0.096,0.392-0.059,0.778,0.052,1.161c0.115,0.398,0.294,0.771,0.466,1.146c0.278,0.602,0.526,1.214,0.631,1.875
			c0.01,0.063,0.034,0.041,0.065,0.021c0.415-0.271,0.864-0.473,1.333-0.63c0.314-0.105,0.63-0.201,0.945-0.304
			c0.385-0.125,0.765-0.261,1.103-0.49C136.833,22.892,137.13,22.504,137.234,21.995z"/>
	</g>
</g>
</svg>
