<?xml version="1.0" encoding="utf-8"?>
<!-- Generator: Adobe Illustrator 17.0.0, SVG Export Plug-In . SVG Version: 6.00 Build 0)  -->
<!DOCTYPE svg PUBLIC "-//W3C//DTD SVG 1.1//EN" "http://www.w3.org/Graphics/SVG/1.1/DTD/svg11.dtd">
<svg version="1.1" id="Layer_1" xmlns="http://www.w3.org/2000/svg" xmlns:xlink="http://www.w3.org/1999/xlink" x="0px" y="0px"
	 width="107.65px" height="107.65px" viewBox="0 0 107.65 107.65" enable-background="new 0 0 107.65 107.65" xml:space="preserve">
<g>
	<path fill="#E6205B" d="M53.824,107.646C24.145,107.646,0,83.502,0,53.823S24.145,0,53.824,0s53.824,24.145,53.824,53.823
		S83.502,107.646,53.824,107.646z M53.824,2C25.248,2,2,25.248,2,53.823s23.248,51.823,51.824,51.823s51.824-23.248,51.824-51.823
		S82.399,2,53.824,2z"/>
</g>
<g>
	<g>
		<path fill="#E6205B" d="M36.346,43.314c0.479-0.279,0.95-0.503,1.449-0.667c1.005-0.329,2.033-0.413,3.072-0.227
			c1.249,0.224,1.972,0.988,2.169,2.239c0.035,0.219,0.053,0.44,0.053,0.662c-0.001,2.536-0.003,5.072,0.005,7.607
			c0.001,0.189-0.051,0.226-0.23,0.224c-0.908-0.009-1.815-0.009-2.723,0c-0.176,0.002-0.217-0.05-0.216-0.22
			c0.006-2.203,0.004-4.406,0.004-6.61c0-0.271-0.015-0.539-0.083-0.803c-0.129-0.494-0.425-0.747-0.933-0.801
			c-0.897-0.095-1.708,0.166-2.481,0.594c-0.109,0.061-0.084,0.147-0.084,0.231c-0.001,1.081-0.001,2.162-0.001,3.243
			c0,1.386-0.002,2.771,0.003,4.157c0.001,0.156-0.029,0.211-0.2,0.209c-0.928-0.009-1.857-0.008-2.785-0.001
			c-0.149,0.001-0.181-0.044-0.181-0.186c0.004-5.217,0.004-10.434-0.001-15.651c0-0.155,0.044-0.195,0.193-0.209
			c0.937-0.085,1.874-0.175,2.809-0.278c0.19-0.021,0.162,0.077,0.162,0.188c-0.001,2.009,0,4.018,0,6.028
			C36.346,43.12,36.346,43.196,36.346,43.314z"/>
		<path fill="#E6205B" d="M74.146,47.81c-0.007,1.082-0.127,2.034-0.559,2.916c-0.613,1.253-1.623,2.042-2.949,2.437
			c-1.272,0.379-2.564,0.457-3.852,0.123c-1.598-0.414-2.725-1.402-3.322-2.949c-0.588-1.526-0.618-3.095-0.14-4.643
			c0.517-1.674,1.711-2.681,3.394-3.123c1.116-0.293,2.244-0.318,3.375-0.125c2.014,0.344,3.513,1.838,3.883,3.846
			c0.044,0.238,0.089,0.476,0.118,0.716C74.129,47.311,74.156,47.615,74.146,47.81z M70.865,47.797
			c0.01-0.319-0.022-0.705-0.09-1.088c-0.086-0.481-0.232-0.944-0.534-1.335c-0.462-0.597-1.115-0.725-1.822-0.696
			c-0.928,0.038-1.59,0.492-1.873,1.372c-0.393,1.225-0.399,2.467,0.035,3.687c0.212,0.597,0.598,1.053,1.224,1.269
			c0.308,0.106,0.623,0.121,0.943,0.109c0.802-0.028,1.405-0.368,1.741-1.121C70.792,49.318,70.869,48.6,70.865,47.797z"/>
		<path fill="#E6205B" d="M21.425,49.142c0,1.268-0.003,2.536,0.004,3.805c0.001,0.163-0.041,0.208-0.205,0.206
			c-0.762-0.009-1.525-0.01-2.287,0.001c-0.165,0.002-0.231-0.055-0.267-0.204c-0.039-0.161-0.105-0.315-0.145-0.476
			c-0.033-0.13-0.076-0.134-0.179-0.057c-0.401,0.299-0.83,0.555-1.304,0.714c-1.124,0.377-2.269,0.534-3.417,0.128
			c-1.047-0.37-1.715-1.112-1.883-2.223c-0.185-1.223,0.206-2.243,1.235-2.969c0.928-0.655,1.989-0.983,3.092-1.189
			c0.681-0.128,1.369-0.201,2.062-0.213c0.092-0.002,0.138-0.019,0.137-0.125c-0.004-0.332-0.001-0.664-0.083-0.991
			c-0.136-0.548-0.449-0.824-1.01-0.88c-0.971-0.096-1.863,0.162-2.719,0.594c-0.297,0.15-0.59,0.305-0.866,0.491
			c-0.097,0.065-0.15,0.075-0.222-0.041c-0.345-0.559-0.697-1.114-1.056-1.664c-0.07-0.107-0.04-0.146,0.052-0.206
			c1.73-1.134,3.62-1.654,5.69-1.491c0.561,0.044,1.106,0.152,1.632,0.361c0.931,0.371,1.452,1.068,1.649,2.031
			c0.063,0.306,0.09,0.616,0.09,0.928C21.424,46.827,21.425,47.984,21.425,49.142z M18.265,49.58c0-0.291-0.008-0.582,0.003-0.872
			c0.006-0.147-0.052-0.174-0.181-0.161c-0.481,0.05-0.963,0.091-1.436,0.201c-0.47,0.11-0.913,0.276-1.278,0.607
			c-0.382,0.347-0.492,0.768-0.322,1.218c0.146,0.388,0.529,0.611,1.032,0.622c0.712,0.016,1.355-0.215,1.984-0.519
			c0.163-0.079,0.213-0.175,0.202-0.349C18.253,50.079,18.265,49.829,18.265,49.58z"/>
		<path fill="#E6205B" d="M78.835,43.447c0.491-0.282,0.959-0.529,1.452-0.726c1.095-0.438,2.222-0.518,3.36-0.237
			c1.114,0.275,1.69,1.059,1.886,2.156c0.053,0.294,0.067,0.591,0.067,0.889c-0.001,2.446,0,4.892-0.001,7.338
			c0,0.336,0.03,0.281-0.291,0.281c-0.887,0.002-1.774-0.004-2.661,0.005c-0.178,0.002-0.215-0.054-0.214-0.222
			c0.006-2.197,0.004-4.393,0.003-6.59c0-0.242-0.014-0.483-0.06-0.723c-0.108-0.565-0.445-0.856-1.022-0.907
			c-0.814-0.071-1.537,0.198-2.245,0.553c-0.215,0.108-0.28,0.238-0.279,0.477c0.011,2.391,0.004,4.781,0.011,7.172
			c0.001,0.192-0.05,0.241-0.24,0.239c-0.915-0.01-1.829-0.008-2.744-0.001c-0.146,0.001-0.184-0.039-0.184-0.184
			c0.004-3.347,0.004-6.694,0.001-10.041c0-0.134,0.025-0.193,0.175-0.206c0.931-0.079,1.861-0.164,2.791-0.261
			c0.184-0.019,0.206,0.043,0.2,0.196C78.828,42.904,78.835,43.153,78.835,43.447z"/>
		<path fill="#E6205B" d="M51.01,48.581c-1.06,0-2.12,0.003-3.18-0.003c-0.152-0.001-0.184,0.032-0.155,0.183
			c0.042,0.217,0.08,0.435,0.148,0.646c0.334,1.044,1.246,1.697,2.34,1.714c1.036,0.016,1.974-0.291,2.857-0.799
			c0.128-0.074,0.176-0.058,0.244,0.067c0.296,0.539,0.6,1.073,0.908,1.605c0.068,0.117,0.062,0.18-0.059,0.262
			c-1.005,0.686-2.121,1.063-3.324,1.186c-1.058,0.108-2.1,0.026-3.111-0.326c-1.569-0.546-2.558-1.649-2.961-3.237
			c-0.367-1.448-0.333-2.911,0.141-4.341c0.56-1.689,1.737-2.731,3.461-3.085c1.191-0.244,2.404-0.219,3.552,0.262
			c1.383,0.579,2.182,1.644,2.476,3.104c0.147,0.728,0.105,1.46,0.06,2.192c-0.003,0.048-0.009,0.096-0.012,0.145
			c-0.022,0.424-0.021,0.424-0.438,0.424C52.977,48.581,51.994,48.581,51.01,48.581z M49.593,46.521
			c0.568,0,1.135,0.001,1.703-0.001c0.07,0,0.165,0.028,0.163-0.097c-0.007-0.526-0.074-1.03-0.424-1.461
			c-0.541-0.665-2.093-0.72-2.711,0.138c-0.277,0.385-0.44,0.809-0.544,1.264c-0.033,0.144,0.035,0.159,0.153,0.158
			C48.485,46.519,49.039,46.521,49.593,46.521z"/>
		<path fill="#E6205B" d="M91.285,42.336c1.501-0.018,2.872,0.328,4.153,1.037c0.111,0.061,0.136,0.103,0.068,0.215
			c-0.358,0.591-0.714,1.184-1.061,1.782c-0.067,0.116-0.124,0.091-0.213,0.046c-0.563-0.282-1.135-0.542-1.753-0.679
			c-0.53-0.118-1.068-0.151-1.608-0.068c-0.19,0.029-0.346,0.12-0.49,0.251c-0.273,0.25-0.278,0.809,0.154,1.012
			c0.466,0.219,0.958,0.353,1.451,0.486c0.781,0.21,1.567,0.403,2.282,0.801c1.102,0.614,1.707,1.531,1.681,2.814
			c-0.026,1.295-0.61,2.259-1.765,2.861c-0.73,0.381-1.52,0.55-2.335,0.581c-1.297,0.049-2.57-0.089-3.783-0.592
			c-0.493-0.204-0.958-0.458-1.405-0.75c-0.11-0.072-0.127-0.126-0.051-0.241c0.387-0.581,0.769-1.166,1.144-1.755
			c0.072-0.113,0.123-0.113,0.224-0.041c0.82,0.593,1.744,0.924,2.741,1.037c0.561,0.064,1.135,0.111,1.664-0.18
			c0.502-0.276,0.546-0.938,0.078-1.273c-0.436-0.312-0.949-0.442-1.453-0.591c-0.761-0.226-1.537-0.406-2.258-0.753
			c-0.733-0.353-1.349-0.823-1.603-1.639c-0.518-1.662,0.152-3.185,1.732-3.901C89.661,42.443,90.477,42.319,91.285,42.336z"/>
		<path fill="#E6205B" d="M56.602,48.048c0-1.013-0.004-1.851,0.003-2.69c0.001-0.149-0.028-0.202-0.19-0.198
			c-0.506,0.012-1.012-0.001-1.517,0.008c-0.156,0.003-0.216-0.028-0.213-0.202c0.011-0.7,0.011-1.4,0-2.099
			c-0.003-0.173,0.057-0.203,0.211-0.2c0.513,0.009,1.025-0.002,1.538,0.007c0.14,0.002,0.172-0.043,0.171-0.176
			c-0.006-0.665,0.001-1.33-0.006-1.995c-0.001-0.137,0.031-0.186,0.177-0.205c0.947-0.123,1.892-0.255,2.836-0.394
			c0.157-0.023,0.168,0.036,0.167,0.161c-0.004,0.797,0.003,1.594-0.006,2.39c-0.002,0.171,0.043,0.222,0.218,0.22
			c0.831-0.009,1.663,0.002,2.494-0.009c0.179-0.002,0.2,0.059,0.179,0.211c-0.098,0.706-0.195,1.412-0.277,2.12
			c-0.018,0.155-0.079,0.173-0.209,0.172c-0.727-0.005-1.455,0.006-2.182-0.008c-0.191-0.003-0.224,0.057-0.223,0.232
			c0.007,1.441,0.001,2.882,0.006,4.323c0.001,0.325,0.006,0.66,0.232,0.926c0.311,0.366,0.728,0.315,1.136,0.252
			c0.273-0.042,0.535-0.139,0.788-0.248c0.119-0.052,0.162-0.027,0.209,0.093c0.239,0.611,0.488,1.218,0.738,1.825
			c0.039,0.093,0.043,0.149-0.058,0.199c-1.289,0.641-2.632,0.948-4.054,0.555c-1.248-0.345-2.032-1.345-2.137-2.639
			C56.559,49.744,56.627,48.808,56.602,48.048z"/>
		<path fill="#E6205B" d="M28.437,42.342c1.194-0.059,2.292,0.33,3.347,0.885c0.117,0.061,0.122,0.114,0.064,0.221
			c-0.321,0.596-0.64,1.193-0.948,1.795c-0.064,0.124-0.115,0.109-0.217,0.059c-0.656-0.32-1.329-0.574-2.078-0.568
			c-1.087,0.009-1.831,0.502-2.195,1.531c-0.372,1.051-0.396,2.13-0.122,3.209c0.243,0.959,1.138,1.425,2.011,1.479
			c0.923,0.056,1.74-0.255,2.517-0.706c0.143-0.083,0.207-0.087,0.293,0.072c0.307,0.572,0.628,1.137,0.95,1.701
			c0.065,0.114,0.054,0.171-0.061,0.242c-1.062,0.657-2.201,1.112-3.453,1.199c-1.559,0.109-3.015-0.199-4.258-1.219
			c-0.583-0.478-0.946-1.105-1.143-1.816c-0.408-1.471-0.456-2.963-0.002-4.424c0.592-1.907,1.909-3.076,3.855-3.53
			C27.461,42.363,27.935,42.315,28.437,42.342z"/>
	</g>
</g>
<g>
	<path fill="#E6205B" d="M44.483,61.662c0.974-0.04,1.908,0.119,2.781,0.555c1.392,0.696,2.182,1.858,2.506,3.351
		c0.25,1.151,0.252,2.307-0.027,3.457c-0.374,1.545-1.281,2.651-2.756,3.257c-1.432,0.588-2.92,0.706-4.414,0.321
		c-1.664-0.429-2.804-1.484-3.369-3.118c-0.543-1.569-0.555-3.158,0.008-4.718c0.506-1.403,1.531-2.308,2.945-2.77
		C42.913,61.75,43.689,61.628,44.483,61.662z M46.664,67.155c0.015-0.34-0.022-0.725-0.087-1.107
		c-0.084-0.497-0.236-0.971-0.551-1.371c-0.457-0.578-1.097-0.704-1.789-0.679c-1.007,0.037-1.684,0.581-1.951,1.553
		c-0.276,1.002-0.278,2.011-0.063,3.018c0.115,0.541,0.347,1.04,0.778,1.412c0.529,0.456,1.16,0.514,1.819,0.431
		c0.81-0.102,1.302-0.581,1.566-1.329C46.601,68.474,46.673,67.845,46.664,67.155z"/>
	<path fill="#E6205B" d="M69.992,68.455c0,1.261-0.005,2.522,0.005,3.782c0.001,0.197-0.059,0.239-0.244,0.237
		c-0.755-0.01-1.51-0.009-2.265,0c-0.146,0.002-0.211-0.044-0.245-0.181c-0.041-0.167-0.108-0.329-0.15-0.496
		c-0.034-0.135-0.083-0.13-0.183-0.056c-0.741,0.556-1.579,0.883-2.492,1.006c-1,0.135-1.986,0.098-2.862-0.48
		c-0.988-0.652-1.385-1.596-1.27-2.765c0.117-1.186,0.82-1.94,1.827-2.469c0.961-0.505,1.992-0.776,3.06-0.923
		c0.507-0.07,1.016-0.125,1.529-0.128c0.082,0,0.128-0.02,0.13-0.115c0.004-0.368,0-0.734-0.106-1.091
		c-0.149-0.5-0.473-0.746-1.019-0.791c-0.954-0.078-1.837,0.163-2.679,0.592c-0.29,0.148-0.58,0.296-0.847,0.482
		c-0.113,0.079-0.184,0.074-0.263-0.054c-0.338-0.547-0.684-1.09-1.034-1.63c-0.073-0.113-0.042-0.162,0.06-0.226
		c1.131-0.706,2.326-1.253,3.662-1.423c0.986-0.125,1.98-0.145,2.953,0.079c0.742,0.171,1.44,0.47,1.891,1.143
		c0.404,0.602,0.539,1.281,0.54,1.993C69.993,66.113,69.992,67.284,69.992,68.455z M66.831,68.878c0-0.277-0.007-0.555,0.003-0.831
		c0.005-0.146-0.037-0.2-0.188-0.179c-0.336,0.046-0.675,0.066-1.009,0.122c-0.611,0.102-1.208,0.25-1.688,0.682
		c-0.383,0.344-0.502,0.773-0.33,1.214c0.154,0.397,0.528,0.621,1.027,0.63c0.749,0.014,1.425-0.23,2.077-0.568
		c0.092-0.047,0.111-0.106,0.11-0.197C66.829,69.46,66.831,69.169,66.831,68.878z"/>
	<path fill="#E6205B" d="M56.486,61.661c1.132-0.069,2.23,0.347,3.296,0.893c0.106,0.054,0.099,0.107,0.052,0.194
		c-0.32,0.598-0.64,1.195-0.951,1.797c-0.067,0.13-0.128,0.125-0.242,0.071c-0.493-0.236-0.993-0.46-1.544-0.522
		c-0.717-0.081-1.415-0.066-2.004,0.441c-0.402,0.346-0.653,0.787-0.792,1.29c-0.262,0.951-0.286,1.912-0.066,2.874
		c0.207,0.911,0.92,1.4,1.738,1.534c0.994,0.163,1.885-0.143,2.736-0.619c0.273-0.152,0.272-0.15,0.427,0.128
		c0.295,0.532,0.588,1.066,0.892,1.594c0.066,0.114,0.071,0.168-0.052,0.243c-1.335,0.816-2.762,1.308-4.347,1.219
		c-1.198-0.068-2.311-0.395-3.272-1.155c-0.664-0.525-1.069-1.214-1.279-2.015c-0.351-1.342-0.383-2.702-0.043-4.047
		c0.367-1.45,1.202-2.567,2.538-3.279C54.453,61.835,55.397,61.63,56.486,61.661z"/>
	<path fill="#E6205B" d="M37.304,64.305c0,2.646-0.002,5.292,0.004,7.939c0,0.18-0.039,0.234-0.227,0.231
		c-0.914-0.011-1.829-0.008-2.743-0.001c-0.154,0.001-0.198-0.039-0.198-0.196c0.004-5.216,0.004-10.432,0-15.649
		c0-0.16,0.054-0.191,0.199-0.204c0.929-0.085,1.858-0.176,2.785-0.278c0.188-0.021,0.181,0.068,0.181,0.198
		C37.303,58.998,37.304,61.652,37.304,64.305z"/>
	<path fill="#E6205B" d="M75.225,64.317c0,2.639-0.002,5.279,0.004,7.918c0,0.191-0.05,0.241-0.24,0.239
		c-0.907-0.01-1.815-0.009-2.722-0.001c-0.167,0.002-0.206-0.048-0.206-0.209c0.004-5.209,0.004-10.419-0.001-15.628
		c0-0.173,0.064-0.199,0.212-0.213c0.916-0.083,1.831-0.171,2.745-0.27c0.168-0.018,0.212,0.012,0.211,0.183
		c-0.005,2.113-0.004,4.226-0.004,6.338C75.225,63.223,75.225,63.77,75.225,64.317z"/>
</g>
</svg>
